<?xml version="1.0" standalone="no"?><!DOCTYPE svg PUBLIC "-//W3C//DTD SVG 1.1//EN" "http://www.w3.org/Graphics/SVG/1.1/DTD/svg11.dtd"><svg t="1481246801335" class="icon" style="" viewBox="0 0 1024 1024" version="1.1" xmlns="http://www.w3.org/2000/svg" p-id="11380" xmlns:xlink="http://www.w3.org/1999/xlink" width="200" height="200"><defs><style type="text/css"></style></defs><path d="M512 0C229.248 0 0 229.216 0 512s229.248 512 512 512 512-229.216 512-512S794.752 0 512 0zM247.136 542.304c52.384 0 138.624-34.656 163.456-64.896 9.792-10.656 3.52-13.376-38.208-16.896-55.936-4.384-75.52-22.208-86.144-78.176-9.856-47.968-8-132.384 1.76-152 10.72-18.624 40.064-23.104 49.824-7.136 3.584 6.24 6.24 39.104 7.136 74.688 1.792 97.792 7.136 102.272 136.832 97.792 57.824-1.856 120.896-3.584 142.208-4.48 56.832 0 76.48-24 69.344-86.176-6.24-55.968-18.72-79.072-49.824-90.656-27.488-11.616-183.936-15.136-246.144-5.344-46.176 6.24-47.072 6.24-47.072-16 0-26.592 9.728-33.728 53.312-42.592 47.936-9.76 204.32-8 244.416 2.656 75.52 19.584 87.904 32.864 110.208 125.44 13.28 55.072 12.384 79.968-3.584 118.144-17.728 43.584-51.552 54.24-159.968 53.344-87.168-0.864-88.896 0-104 23.104-18.72 30.08-94.24 89.696-128 102.144-102.144 36.384-159.136 39.968-167.968 11.488C185.824 559.2 205.312 542.304 247.136 542.304zM401.76 281.952c6.208-7.136 40.064-10.656 105.76-9.888 126.144 0.992 119.904-0.832 116.416 27.616l-2.624 24-111.136 0.864c-99.552 0-111.168-1.76-113.76-16C394.624 299.68 397.248 288.16 401.76 281.952zM456.8 799.072C402.592 837.312 303.104 880 268.416 880c-56.864 0-53.344-55.968 4.48-71.936 98.656-26.72 200.032-83.52 319.936-178.624 48.064-37.344 53.312-39.168 67.552-21.536 12.384 15.136 9.76 17.856-72.896 88.928-27.584 24-50.72 48.832-50.72 55.936 0 6.24-7.104 11.584-15.104 11.584S484.32 779.488 456.8 799.072zM833.696 678.368c-4.384 55.104-19.488 83.552-64.8 124.416-71.168 63.968-170.72 95.072-204.448 64.832-22.208-20.512-39.968-64.032-32.832-80.928 4.384-12.48 7.968-12.48 32.832 0.864 55.936 28.48 136-1.76 182.176-68.416 46.208-67.552 26.624-141.376-37.344-141.376-23.104 0-31.936-5.248-40.832-24.832-16.928-34.624-50.656-36.352-88.864-3.52-177.76 153.76-343.072 237.28-380.416 192.832-23.968-28.384-5.344-42.592 93.312-71.104 33.824-9.824 89.792-39.072 151.968-80.864 88.896-58.624 98.656-67.456 95.136-87.968-3.584-16.832 0-23.968 16-30.208 11.488-4.48 31.104-6.24 43.552-4.384 12.416 0.864 40.864 4.48 63.968 7.104C765.248 486.432 841.696 578.848 833.696 678.368z" p-id="11381"></path></svg>