<?xml version="1.0" standalone="no"?><!DOCTYPE svg PUBLIC "-//W3C//DTD SVG 1.1//EN" "http://www.w3.org/Graphics/SVG/1.1/DTD/svg11.dtd"><svg t="1481246160680" class="icon" style="" viewBox="0 0 1024 1024" version="1.1" xmlns="http://www.w3.org/2000/svg" p-id="1517" xmlns:xlink="http://www.w3.org/1999/xlink" width="200" height="200"><defs><style type="text/css"></style></defs><path d="M523.060405 879.870392c-130.938168 1.076518-249.337765-6.001691-366.605585-27.930119-59.123562-11.059893-93.682659-51.02921-92.324732-106.683764 0.385786-15.784498 6.012947-23.987321 22.140253-23.877827 12.698207 0.085958 25.41074 0.096191 38.115086 0.183172 14.795984 0.109494 25.576515 4.145413 30.17116 20.941961 6.219655 22.716374 24.3772 33.034371 46.598294 36.137035 55.673997 7.774057 111.421672 14.852266 167.602206 18.114566 88.828095 5.164626 177.602977 7.208169 266.478144 0.382717 64.170508-4.930289 128.268362-10.050913 191.787024-20.937868 16.739243-2.870374 30.390147-10.644431 34.238802-26.981515 6.027274-25.517163 22.64065-28.589129 44.820811-28.352745 56.819077 0.62831 58.684564 2.190899 43.874253 56.285934-9.188266 33.577746-27.846208 57.681724-63.210647 68.229964-55.228859 16.480346-112.321158 21.451568-168.95297 26.755364C649.245316 878.559537 580.267315 883.287211 523.060405 879.870392" p-id="1518"></path><path d="M524.153296 142.171c101.280708-6.309706 212.429157 5.835915 322.704726 23.571858 65.195861 10.487865 96.571453 26.904767 110.35641 104.193037 3.701299 20.735253-4.821819 29.185716-24.543999 28.562523-12.70537-0.396019-25.403576-2.25025-38.069037-2.030239-15.694447 0.273223-25.222451-5.706979-30.769794-20.961404-7.518231-20.729114-24.310685-30.957059-45.645596-33.787524-130.745786-17.365506-262.029832-28.28316-393.880789-21.191648-76.042907 4.085038-151.787008 14.080693-227.577159 22.25077-17.965164 1.938142-34.08019 11.067057-39.772842 29.135574-6.924713 22.023596-21.481244 27.051099-41.750893 25.186635-9.022491-0.831948-18.171871-1.055029-27.241434-0.768503-17.512862 0.545422-23.824615-7.671727-23.718191-24.944112 0.286526-47.586808 29.618575-87.106894 75.543533-97.308233C262.795776 146.751319 387.595131 139.101081 524.153296 142.171" p-id="1519"></path><path d="M424.597883 512.518816c0 36.289508 0.412392 72.591295-0.226151 108.874663-0.226151 12.551874-2.124384 25.282826-4.953825 37.542035-3.588735 15.562441-27.807323 32.32215 6.678096 43.88551 8.063653 2.700505 5.933129 19.936051 2.610454 30.53341-3.2623 10.444886-13.19758 13.124925-22.053272 12.459776-25.63689-1.944282-53.956889 1.927909-69.771063-26.486234-4.647857-8.360412-12.911054-8.919137-21.274536-9.245572-9.05626-0.353041-18.185174-0.403183-27.114544-1.718131-83.847663-12.328793-93.602841-23.644513-93.616144-107.882056-0.00614-70.77288-0.186242-141.54269 0.113587-212.3125 0.152473-37.925774 14.355963-55.836703 50.532907-67.482951 44.906769-14.46341 89.38068-12.498662 133.529179 2.550079 30.670533 10.454096 44.261063 29.797653 45.173852 66.800405 0.991584 40.802288 0.218988 81.653695 0.218988 122.481565L424.597883 512.518816zM332.333526 511.983627l0.086981 0c0-38.983873-0.12689-77.963653 0.066515-116.948549 0.072655-16.110933-2.550079-28.90226-23.125697-28.949332-18.857487-0.042979-25.77606 9.532097-25.749454 27.04189 0.13303 77.963653 0.053212 155.935492 0.12689 233.897098 0.013303 17.10968 4.987594 31.782867 25.069979 31.845289 21.315468 0.065492 23.39892-16.35141 23.472598-32.661887C332.453253 588.132958 332.333526 550.058804 332.333526 511.983627" p-id="1520"></path><path d="M712.496895 445.931259c11.473309-36.487006 21.655206-64.626903 28.972868-93.496417 5.613858-22.153556 16.693194-30.713512 40.032762-30.630624 70.010517 0.239454 60.609403 3.962242 41.830711 56.499805-16.467043 46.085618-30.297027 93.353155-50.154283 137.933489-20.336164 45.661969-13.456477 92.50688-15.434527 139.221832-0.666172 15.505136 6.511297 35.741016-13.59053 43.033096-21.640879 7.853875-44.687782 2.979868-66.695005-2.437515-5.41329-1.335415-6.91141-7.92039-7.611352-13.500479-0.227174-1.790786-0.652869-3.665483-0.400113-5.41329 16.940834-115.174136-40.445154-213.121935-73.665767-316.592518-10.906397-33.95637-9.096169-37.938054 26.149567-38.254256 8.170077-0.073678 16.406668 0.695848 24.484647-0.1361 19.497053-2.01796 30.078039 6.205329 35.351136 25.210172C690.223612 377.844557 700.491467 407.819243 712.496895 445.931259" p-id="1521"></path><path d="M960.043874 513.548262c0 51.732222-0.505513 103.473653 0.246617 155.192571 0.305969 21.1149-6.005784 31.270191-29.318746 31.659047-59.323107 0.982374-59.309804 1.874697-59.323107-58.294684-0.007163-95.297436 0.665149-190.601013-0.472767-285.874913-0.313132-26.239618 8.942673-34.891671 34.805714-34.462906 53.949726 0.87902 53.956889-0.215918 53.949726 52.92028-0.00614 46.292326 0 92.573395 0 138.859581L960.043874 513.547239z" p-id="1522"></path><path d="M557.56629 514.276856c0 53.503565-0.698918 107.029642 0.400113 160.516834 0.366344 17.761526-5.760191 24.074302-22.946618 25.304316-66.707284 4.78805-66.680678 5.160533-66.686818-61.014632 0-92.514043-0.033769-185.021947 0.013303-277.534967 0.013303-36.473703 2.550079-39.003316 38.175461-39.276539 5.438872-0.039909 10.946306 0.539282 16.313547-0.079818 26.00835-2.996241 35.278481 8.257058 34.565237 34.282804-1.458211 52.565193-0.440022 105.195877-0.440022 157.803026C557.168224 514.276856 557.367769 514.276856 557.56629 514.276856" p-id="1523"></path><path d="M148.165016 566.579059c-0.033769 35.314297-0.565888 70.635757 0.180102 105.927541 0.406253 19.733437-7.951089 26.988678-27.420513 27.711132-56.899918 2.127454-56.892755 2.700505-56.899918-54.796-0.00614-59.755965 0.679475-119.528304-0.313132-179.267896-0.373507-22.246677 7.664563-30.30726 29.977755-30.384008 64.590064-0.209778 54.242392-4.321422 54.489008 52.04126C148.298046 514.064009 148.197762 540.318976 148.165016 566.579059" p-id="1524"></path><path d="M148.211065 366.248452c-0.020466 44.307112-0.020466 44.307112-39.945781 44.307112-44.293809 0.00614-44.293809 0.00614-44.24776-45.222971 0.039909-43.166125 0.039909-43.166125 43.754526-43.09961C148.230508 322.29745 148.230508 322.29745 148.211065 366.248452" p-id="1525"></path></svg>