<?xml version="1.0" standalone="no"?><!DOCTYPE svg PUBLIC "-//W3C//DTD SVG 1.1//EN" "http://www.w3.org/Graphics/SVG/1.1/DTD/svg11.dtd"><svg t="1481246541289" class="icon" style="" viewBox="0 0 1024 1024" version="1.1" xmlns="http://www.w3.org/2000/svg" p-id="8183" xmlns:xlink="http://www.w3.org/1999/xlink" width="200" height="200"><defs><style type="text/css"></style></defs><path d="M483.968573 461.181591h278.105972c38.390355 0 69.521377-31.136138 69.521377-69.53468 0-38.399565-31.131021-69.517283-69.521377-69.517283H483.968573c-38.390355 0-69.51626 31.116695-69.51626 69.517283 0 38.398542 31.126928 69.534679 69.51626 69.53468z" p-id="8184"></path><path d="M692.547029 623.403253c0-38.400588-31.115672-69.535703-69.51626-69.535703H321.747935V159.886477c0-38.390355-31.128975-69.51626-69.535703-69.51626-38.379099 0-69.517283 31.126928-69.517283 69.51626v463.46868l-0.001023 0.048096c0 38.399565 31.137161 69.534679 69.517283 69.534679h370.820583c38.400588 0.001023 69.515237-31.135114 69.515237-69.534679zM762.075569 785.624914H483.969597c-38.390355 0-69.51626 31.137161-69.51626 69.53468 0 38.382169 31.126928 69.517283 69.51626 69.517283h278.105972c38.390355 0 69.521377-31.137161 69.521376-69.517283-0.001023-38.397518-31.132044-69.534679-69.521376-69.53468z" p-id="8185"></path></svg>