<?xml version="1.0" standalone="no"?><!DOCTYPE svg PUBLIC "-//W3C//DTD SVG 1.1//EN" "http://www.w3.org/Graphics/SVG/1.1/DTD/svg11.dtd"><svg t="1481246424541" class="icon" style="" viewBox="0 0 1024 1024" version="1.1" xmlns="http://www.w3.org/2000/svg" p-id="5839" xmlns:xlink="http://www.w3.org/1999/xlink" width="200" height="200"><defs><style type="text/css"></style></defs><path d="M960.397827 357.217774c0-9.92914 0-7.203052-9.929557-7.203052l-99.309895 0-168.801442 0-39.744834-70.76981L533.409488 69.367881c-9.957187 0-9.957187 0-19.886744 0L414.244572 279.244912l-39.741764 70.76981L205.667595 350.014722 63.816053 350.014722l0 4.505617 56.034506 39.740096 157.138332 139.091872-35.659624 317.92077c0 9.92914 2.039535 9.92914 21.894555 9.92914l259.22048-158.961408 258.674011 158.961408c9.957187 0 10.199721 0 20.129278-9.92914l-49.517819-317.92077 149.007823-127.822201L960.397827 357.217774zM305.008191 661.845797l287.968404-234.6963-268.113384-45.951565 407.133319 0L483.738167 605.965092l258.18485 55.879682L305.008191 661.844773z" p-id="5840"></path></svg>