<?xml version="1.0" standalone="no"?><!DOCTYPE svg PUBLIC "-//W3C//DTD SVG 1.1//EN" "http://www.w3.org/Graphics/SVG/1.1/DTD/svg11.dtd"><svg t="1481691860533" class="icon" style="" viewBox="0 0 1024 1024" version="1.1" xmlns="http://www.w3.org/2000/svg" p-id="1197" xmlns:xlink="http://www.w3.org/1999/xlink" width="200" height="200"><defs><style type="text/css"></style></defs><path d="M702.2725 747.5927c-52.8855 37.5183-114.7638 56.3272-178.0214 55.4609-8.364-0.0881-16.6707-0.5274-24.875-1.2585-3.3536-0.3205-6.7092-0.8765-10.0782-1.3015-6.4604-0.8663-12.9352-1.7428-19.2215-2.9747-3.8973-0.7475-7.7046-1.7582-11.5128-2.6522-6.1676-1.4664-12.3075-2.945-18.3265-4.7606-2.901-0.9083-5.7272-1.9487-8.5985-2.9297-6.9437-2.3583-13.8588-4.7892-20.5967-7.6462-1.5227-0.6175-2.988-1.3455-4.5117-2.0367-7.852-3.5021-15.6457-7.1772-23.1465-11.308-0.3656-0.1915-0.6738-0.3523-1.0394-0.5407-25.4464-14.1527-48.7393-31.8188-69.1599-52.4605-0.3082-0.3205-0.6451-0.7035-0.981-1.0691-6.3437-6.4471-12.3935-13.185-18.1514-20.2158-1.2012-1.495-2.3736-3.1058-3.5891-4.6438-41.5601-52.6479-66.6255-119.2745-66.6255-191.7614h70.498304c1.8207 0 3.583-0.9759 4.5066-2.6911 0.9247-1.7152 0.77-3.7233-0.2314-5.2449L180.1073 307.5871c-0.9155-1.3896-2.4893-2.304-4.2762-2.304s-3.3618 0.9155-4.2762 2.304L53.0493 487.554c-1.0015 1.5217-1.1551 3.5297-0.2314 5.2449 0.9247 1.7152 2.686 2.6911 4.5076 2.6911h70.51264c0 85.2163 26.2369 164.2045 70.8147 229.5122 0.5427 0.9103 0.938 1.877 1.538 2.7863 4.6141 6.6785 9.7423 12.8461 14.6934 19.1601 1.8463 2.388 3.5748 4.8476 5.4938 7.1905 7.296 8.9661 15.0446 17.3896 23.0144 25.6225 0.7619 0.8202 1.4653 1.6251 2.2129 2.3583 26.75 27.1155 57.001 49.9702 89.9031 68.2373 0.8499 0.514 1.6998 1.0424 2.6368 1.5247 9.4781 5.1548 19.2195 9.814 29.0939 14.2244 2.4617 1.068 4.864 2.2702 7.3687 3.326 8.4388 3.5451 17.11 6.6499 25.856 9.6102 4.1308 1.4213 8.233 2.8713 12.4221 4.1738 7.6329 2.2856 15.4409 4.2045 23.3216 6.0938 5.2152 1.2308 10.3997 2.5641 15.7194 3.5891 2.2118 0.4547 4.2916 1.1438 6.4614 1.4797 7.4117 1.3332 14.8828 2.0797 22.3099 2.988 2.6808 0.3236 5.3176 0.7782 7.9995 1.0691 13.3458 1.3343 26.6465 2.2118 39.935 2.2118 81.3189 0 160.6605-25.1812 228.7196-73.4515 21.6832-15.4245 26.9722-45.6899 11.7801-67.6792C753.8964 737.4848 723.9537 732.1672 702.2725 747.5927" p-id="1198" fill="#464648"></path><path d="M927.9171 495.49c-0.044-84.951-26.1202-163.7806-70.4778-228.9551-0.6451-1.1131-1.0854-2.2415-1.8156-3.2819-5.5081-7.9688-11.5313-15.3969-17.5206-22.8383-0.6881-0.9083-1.3322-1.8606-2.0654-2.7546-40.5955-49.8668-91.5589-88.3804-149.3217-113.5616-1.5985-0.7035-3.1642-1.4797-4.7749-2.1832-9.216-3.838-18.6655-7.2366-28.1559-10.4448-3.4284-1.1428-6.783-2.4023-10.284-3.4427-8.277-2.5344-16.6717-4.5998-25.1402-6.5782-4.6725-1.0988-9.345-2.2999-14.078-3.2369-2.3429-0.4547-4.5548-1.1571-6.869-1.5821-6.314-1.0988-12.6577-1.5821-18.986-2.4166-4.395-0.5571-8.6733-1.2452-13.097-1.6998-10.6353-0.9964-21.1845-1.4203-31.7307-1.6108-1.9343 0-3.7939-0.3082-5.7129-0.3082-0.3512 0-0.6728 0.1034-1.025 0.1321C445.6448 90.7858 366.4794 115.6168 298.5062 163.8277c-21.7395 15.3815-27.0285 45.6765-11.8221 67.6803 15.1767 22.0037 45.1635 27.3357 66.859 11.9091 52.5036-37.2234 113.7531-56.063 176.5704-55.4916 9.0388 0.0584 17.9313 0.512 26.7213 1.3476 2.7095 0.3082 5.3914 0.7178 8.0855 1.0547 7.2233 0.894 14.3862 1.9333 21.4456 3.3403 3.1212 0.6154 6.1983 1.4203 9.2426 2.1248 6.9304 1.5811 13.8455 3.2809 20.6131 5.3473 2.1381 0.6881 4.2465 1.4643 6.3857 2.1678 7.721 2.5631 15.3231 5.3176 22.7963 8.4675 0.7598 0.3215 1.538 0.7178 2.2702 1.025 44.7386 19.4836 83.9854 49.4715 114.603 87.0031 0.1915 0.2191 0.3799 0.513 0.5571 0.7322 43.0981 53.119 69.0432 121.0184 69.0719 194.9542h-70.528c-1.8207 0-3.583 0.9759-4.5066 2.6911s-0.77 3.7233 0.2324 5.2449l118.5321 179.9537c0.9155 1.3885 2.4893 2.304 4.2772 2.304 1.7869-0.001 3.3608-0.9165 4.2752-2.305l118.4768-179.9537c1.0025-1.5217 1.1561-3.5287 0.2314-5.2449-0.9236-1.7152-2.686-2.6911-4.5066-2.6911H927.917056L927.9171 495.49z" p-id="1199" fill="#464648"></path></svg>