<?xml version="1.0" standalone="no"?><!DOCTYPE svg PUBLIC "-//W3C//DTD SVG 1.1//EN" "http://www.w3.org/Graphics/SVG/1.1/DTD/svg11.dtd"><svg t="1481246501052" class="icon" style="" viewBox="0 0 1024 1024" version="1.1" xmlns="http://www.w3.org/2000/svg" p-id="7203" xmlns:xlink="http://www.w3.org/1999/xlink" width="200" height="200"><defs><style type="text/css"></style></defs><path d="M428.513052 105.762789c26.683732-5.786797 77.581959-5.786797 104.265692 0C498.024196 105.762789 463.268624 105.762789 428.513052 105.762789z" p-id="7204"></path><path d="M404.183947 109.237937c0.434905-7.67582 14.743796-1.476631 20.852934-3.475148C424.604022 113.438609 410.294109 107.23942 404.183947 109.237937z" p-id="7205"></path><path d="M536.254915 105.762789c6.109138 1.99954 20.418029-4.199649 20.852934 3.475148C550.997688 107.23942 536.688797 113.438609 536.254915 105.762789z" p-id="7206"></path><path d="M386.807185 112.714108c0.644683-5.14723 8.397251-3.187599 13.901615-3.475148C400.064117 114.385167 392.312572 112.424512 386.807185 112.714108z" p-id="7207"></path><path d="M299.919279 196.125843c11.69639-5.777587 47.388287-5.777587 59.083653 0-4.6366 0-9.266038 0-13.901615 0-10.426467 0-20.852934 0-31.279401 0C309.185316 196.125843 304.555879 196.125843 299.919279 196.125843z" p-id="7208"></path><path d="M313.820893 199.602014c0-1.159406 0-2.316765 0-3.475148 10.426467 0 20.852934 0 31.279401 0 0 1.159406 0 2.316765 0 3.475148C334.673827 199.602014 324.24736 199.602014 313.820893 199.602014z" p-id="7209"></path><path d="M286.016641 203.077162c0-1.158383 0-2.316765 0-3.475148 1.160429 0 2.314719 0 3.475148 0 3.475148 0 6.951319 0 10.426467 0C299.273573 204.749244 291.522028 202.788589 286.016641 203.077162z" p-id="7210"></path><path d="M359.002932 199.602014c3.475148 0 6.950296 0 10.426467 0 2.694365 0.778736 6.856152 0.095167 6.950296 3.475148C371.330702 201.175859 358.418624 207.138664 359.002932 199.602014z" p-id="7211"></path><path d="M431.989223 296.916387c1.160429 0 2.314719 0 3.475148 0 0 125.118626 0 250.238274 0 375.355877-1.160429 0-2.314719 0-3.475148 0 0-1.157359 0-2.317789 0-3.475148 0-121.642454 0-243.285932 0-364.92941C431.989223 301.55094 431.989223 299.233152 431.989223 296.916387z" p-id="7212"></path><path d="M431.989223 303.867706c0 121.643478 0 243.286955 0 364.92941C426.198334 555.259246 426.198334 417.403528 431.989223 303.867706z" p-id="7213"></path><path d="M536.254915 356.00004c54.097082 7.303336 90.831728 31.970132 114.692159 69.51012C597.184613 417.872203 559.564807 394.08852 536.254915 356.00004z" p-id="7214"></path><path d="M74.010109 428.986331c0-1.161453 0-2.314719 0-3.475148 1.160429 0 2.314719 0 3.475148 0-0.590448 5.199419 1.242294 12.82612-3.475148 13.901615C74.010109 435.93765 74.010109 432.461479 74.010109 428.986331z" p-id="7215"></path><path d="M272.115026 435.93765c0 3.475148 0 6.951319 0 10.426467 0 2.314719 0 4.6366 0 6.951319-1.160429 0-2.314719 0-3.475148 0C270.540158 448.264397 264.580422 435.353342 272.115026 435.93765z" p-id="7216"></path><path d="M67.05879 439.412798c1.160429 0 2.314719 0 3.475148 0 0 3.475148 0 6.950296 0 10.426467 0 1.160429 0 2.314719 0 3.475148-1.160429 0-2.314719 0-3.475148 0C67.05879 448.678836 67.05879 444.049399 67.05879 439.412798z" p-id="7217"></path><path d="M272.115026 446.364117c1.160429 0 2.314719 0 3.475148 0-2.067079 7.202029 4.296863 22.832008-3.475148 24.329105 0-1.160429 0-2.314719 0-3.475148 0-4.6366 0-9.266038 0-13.901615C272.115026 450.999694 272.115026 448.678836 272.115026 446.364117z" p-id="7218"></path><path d="M70.534961 453.314413c0-1.160429 0-2.314719 0-3.475148 1.160429 0 2.314719 0 3.475148 0-1.99954 6.109138 4.201695 20.419052-3.475148 20.852934C70.534961 464.902332 70.534961 459.105303 70.534961 453.314413z" p-id="7219"></path><path d="M873.380072 449.839265c5.779633 15.143908 5.779633 54.366212 0 69.51012C873.380072 496.181733 873.380072 473.006917 873.380072 449.839265z" p-id="7220"></path><path d="M268.638855 453.314413c1.160429 0 2.314719 0 3.475148 0 0 4.6366 0 9.266038 0 13.901615-1.160429 0-2.314719 0-3.475148 0C268.638855 462.58045 268.638855 457.951013 268.638855 453.314413z" p-id="7221"></path><path d="M268.638855 467.217051c0 10.426467 0 20.852934 0 31.279401C262.897084 495.856321 262.897084 469.857181 268.638855 467.217051z" p-id="7222"></path><path d="M268.638855 467.217051c1.160429 0 2.314719 0 3.475148 0 0 1.160429 0 2.314719 0 3.475148 0 9.266038 0 18.538215 0 27.804253 0 1.160429 0 2.314719 0 3.475148-1.160429 0-2.314719 0-3.475148 0 0-1.160429 0-2.314719 0-3.475148C268.638855 488.069985 268.638855 477.643518 268.638855 467.217051z" p-id="7223"></path><path d="M769.11438 474.167347c5.701862-0.569982 5.701862 21.423939 0 20.852934C769.11438 488.069985 769.11438 481.118666 769.11438 474.167347z" p-id="7224"></path><path d="M272.115026 501.971599c0-1.160429 0-2.314719 0-3.475148 7.772011 1.496074 1.408069 17.130146 3.475148 24.328082-1.160429 0-2.314719 0-3.475148 0 0-2.317789 0-4.632507 0-6.951319C272.115026 511.237637 272.115026 506.6082 272.115026 501.971599z" p-id="7225"></path><path d="M268.638855 501.971599c1.160429 0 2.314719 0 3.475148 0 0 4.6366 0 9.266038 0 13.901615-1.160429 0-2.314719 0-3.475148 0C268.638855 511.237637 268.638855 506.6082 268.638855 501.971599z" p-id="7226"></path><path d="M268.638855 515.874237c1.160429 0 2.314719 0 3.475148 0 0 2.318812 0 4.63353 0 6.951319s0 4.63353 0 6.950296C266.969842 529.131169 268.927427 521.375531 268.638855 515.874237z" p-id="7227"></path><path d="M873.380072 522.825556c-1.90028 5.050016 4.062526 17.96414-3.475148 17.377786C871.805204 535.152303 865.842399 522.238179 873.380072 522.825556z" p-id="7228"></path><path d="M133.093762 536.727171c5.145184 0.644683 3.187599 8.400321 3.475148 13.901615C131.423727 549.984103 133.382335 542.228465 133.093762 536.727171z" p-id="7229"></path><path d="M70.534961 561.056276c0-4.632507 0-9.269108 0-13.901615 7.534604-0.587378 1.574868 12.326746 3.475148 17.376763-1.161453 0-2.314719 0-3.475148 0C70.534961 563.374064 70.534961 562.212612 70.534961 561.056276z" p-id="7230"></path><path d="M67.05879 561.056276c1.160429 0 2.314719 0 3.475148 0 0 1.157359 0 2.318812 0 3.475148 0 3.475148 0 6.951319 0 10.426467-1.160429 0-2.314719 0-3.475148 0C67.05879 570.325383 67.05879 565.688783 67.05879 561.056276z" p-id="7231"></path><path d="M74.010109 574.958914c5.145184 0.644683 3.186576 8.400321 3.475148 13.901615-2.707668-0.766456-4.03899-2.90926-3.475148-6.951319C74.010109 579.591421 74.010109 577.275679 74.010109 574.958914z" p-id="7232"></path><path d="M98.339214 592.335676c-0.590448 5.199419 1.242294 12.82612-3.475148 13.902638C95.453491 601.037872 93.620749 593.412195 98.339214 592.335676z" p-id="7233"></path><path d="M637.044436 780.014126c0.644683-5.145184 8.400321-3.187599 13.902638-3.475148-0.196475 2.12029-0.51984 4.113691-3.475148 3.475148C643.995755 780.014126 640.520607 780.014126 637.044436 780.014126z" p-id="7234"></path><path d="M501.499343 780.014126c3.475148 0 6.951319 0 10.426467 0 1.157359 0 2.317789 0 3.475148 0 0 1.157359 0 2.317789 0 3.475148C510.201539 782.898827 502.574838 784.731568 501.499343 780.014126z" p-id="7235"></path><path d="M515.400958 783.489274c0-1.157359 0-2.317789 0-3.475148 5.200442 0.589424 12.82612-1.243317 13.902638 3.475148-3.475148 0-6.951319 0-10.426467 0C517.71977 783.489274 516.559341 783.489274 515.400958 783.489274z" p-id="7236"></path><path d="M619.667673 783.489274c0.644683-5.14416 8.400321-3.186576 13.901615-3.475148 0 1.157359 0 2.317789 0 3.475148-1.157359 0-2.317789 0-3.475148 0C626.618992 783.489274 623.142821 783.489274 619.667673 783.489274z" p-id="7237"></path><path d="M633.569288 783.489274c0-1.157359 0-2.317789 0-3.475148 1.157359 0 2.318812 0 3.475148 0 3.475148 0 6.951319 0 10.426467 0C646.82622 785.15931 639.071605 783.201725 633.569288 783.489274z" p-id="7238"></path><path d="M518.877129 783.489274c3.475148 0 6.951319 0 10.426467 0 2.318812 0 4.632507 0 6.951319 0 0 1.158383 0 2.318812 0 3.475148C531.203876 785.064143 518.289752 791.027971 518.877129 783.489274z" p-id="7239"></path><path d="M536.254915 786.964422c0-1.157359 0-2.317789 0-3.475148 25.485441 0 50.974975 0 76.461439 0 0 1.158383 0 2.318812 0 3.475148-2.318812 0-4.632507 0-6.951319 0-19.695574 0-39.388079 0-59.083653 0C543.205211 786.964422 539.730063 786.964422 536.254915 786.964422z" p-id="7240"></path><path d="M612.716354 786.964422c0-1.157359 0-2.317789 0-3.475148 2.318812 0 4.632507 0 6.951319 0 3.475148 0 6.951319 0 10.425444 0C630.680495 791.027971 617.76637 785.064143 612.716354 786.964422z" p-id="7241"></path><path d="M546.680359 786.964422c19.695574 0 39.388079 0 59.083653 0C594.068645 792.742009 558.376749 792.742009 546.680359 786.964422z" p-id="7242"></path><path d="M522.352277 891.231137c2.053776 14.798031-2.49789 22.98755-3.475148 34.754548-93.940532 22.254863-183.333492-17.502629-232.859465-62.558801-0.24457-23.413246 14.254655-32.084743 20.852934-48.65821C371.921149 847.032496 436.26562 880.002398 522.352277 891.231137z" p-id="7243"></path><path d="M425.037904 943.363472c-2.118244-0.196475-4.113691-0.51984-3.475148-3.475148 5.200442 0.590448 12.82612-1.242294 13.901615 3.475148C431.989223 943.363472 428.513052 943.363472 425.037904 943.363472z" p-id="7244"></path><path d="M584.912102 943.363472c0.644683-5.145184 8.400321-3.186576 13.901615-3.475148 0 1.157359 0 2.318812 0 3.475148-1.157359 0-2.317789 0-3.475148 0C591.863421 943.363472 588.387249 943.363472 584.912102 943.363472z" p-id="7245"></path><path d="M598.813716 943.363472c0-1.157359 0-2.318812 0-3.475148 1.158383 0 2.318812 0 3.475148 0 3.475148 0 6.951319 0 10.426467 0C612.071671 945.033507 604.316034 943.074899 598.813716 943.363472z" p-id="7246"></path><path d="M425.037904 943.363472c3.475148 0 6.951319 0 10.426467 0 2.314719 0 4.6366 0 6.951319 0 0 1.157359 0 2.318812 0 3.475148C437.364651 944.93834 424.45462 950.901145 425.037904 943.363472z" p-id="7247"></path><path d="M442.41569 946.839643c0-1.157359 0-2.318812 0-3.475148 6.109138 1.998517 20.419052-4.201695 20.852934 3.475148-5.789866 0-11.586896 0-17.376763 0C444.730409 946.839643 443.576119 946.839643 442.41569 946.839643z" p-id="7248"></path><path d="M560.582997 946.839643c0.434905-7.677866 14.743796-1.476631 20.852934-3.475148 0 1.157359 0 2.318812 0 3.475148-2.318812 0-4.632507 0-6.951319 0C569.852104 946.839643 565.216527 946.839643 560.582997 946.839643z" p-id="7249"></path><path d="M581.43593 946.839643c0-1.157359 0-2.318812 0-3.475148 1.157359 0 2.318812 0 3.475148 0 3.475148 0 6.951319 0 10.426467 0C594.692862 948.508655 586.938248 946.550047 581.43593 946.839643z" p-id="7250"></path><path d="M445.890838 946.839643c5.789866 0 11.586896 0 17.376763 0 2.314719 0 4.6366 0 6.951319 0 0 1.157359 0 2.317789 0 3.475148C463.017914 948.247712 447.387935 954.61063 445.890838 946.839643z" p-id="7251"></path><path d="M470.219943 950.314791c0-1.158383 0-2.318812 0-3.475148 26.643823 0 53.289694 0 79.936587 0 0 1.157359 0 2.317789 0 3.475148-5.792936 0-11.583826 0-17.376763 0-15.059997 0-30.119995 0-45.182039 0C481.806839 950.314791 476.009809 950.314791 470.219943 950.314791z" p-id="7252"></path><path d="M550.15653 950.314791c0-1.158383 0-2.318812 0-3.475148 3.475148 0 6.951319 0 10.426467 0 4.632507 0 9.269108 0 13.901615 0C572.988538 954.61063 557.355489 948.247712 550.15653 950.314791z" p-id="7253"></path><path d="M487.597729 953.789938c0-1.157359 0-2.317789 0-3.475148 15.062044 0 30.122041 0 45.182039 0 0 1.157359 0 2.317789 0 3.475148C517.71977 953.789938 502.659773 953.789938 487.597729 953.789938z" p-id="7254"></path><path d="M435.464371 71.007217c-0.569982-9.839089 21.423939 2.888793 20.852934-6.950296 8.111748 0 16.217357 0 24.328082 0C468.556047 69.344345 452.169845 70.333882 435.464371 71.007217z" p-id="7255"></path><path d="M91.387895 356.00004C149.901567 205.980281 256.420579 103.97098 431.989223 71.007217c-142.089136 31.686676-242.258533 105.294115-305.845757 215.482703 57.882292-74.190723 126.354779-137.787156 229.384317-166.824493-83.996043 31.853475-155.095357 76.607772-205.056236 142.496411 13.699 0.957815 10.630105-14.859429 24.328082-13.901615-1.540076 3.093455-3.050476 6.216585-6.950296 6.951319-12.266371 8.588609-24.695448 17.012466-31.279401 31.279401-15.357779 10.127661-24.487717 26.485211-31.279401 45.182039 0.978281 5.613858-3.284813 5.984295-3.475148 10.426467-6.000668 2.108011 0.264013 16.48444-6.951319 17.376763C95.501586 356.51988 93.505116 356.197538 91.387895 356.00004z" p-id="7256"></path><path d="M543.205211 64.055898c9.270131 0 18.535145 0 27.804253 0 0 1.159406 0 2.316765 0 3.475148 221.042325 37.305651 343.394954 173.300998 385.783367 389.258515 0 10.426467 0 20.852934 0 31.279401C923.689898 241.97303 784.832364 101.630678 543.205211 64.055898z" p-id="7257"></path><path d="M956.79283 536.727171c0 8.108678 0 16.220427 0 24.328082-10.184967 26.88737-9.751085 64.392566-24.328082 86.887906C943.127599 613.426017 947.563632 572.681034 956.79283 536.727171z" p-id="7258"></path><path d="M932.464749 651.41933c-2.685155 8.902764-3.469008 19.702738-10.426467 24.328082C924.722414 666.845671 925.506267 656.045697 932.464749 651.41933z" p-id="7259"></path><path d="M922.037259 679.223582c-36.258809 90.017176-96.601128 155.953911-173.775812 205.056236C822.541197 832.28256 882.038266 765.501598 922.037259 679.223582z" p-id="7260"></path><path d="M838.624501 630.566396c-25.89374 51.725058-65.11502 90.121554-114.692159 118.16833C770.425236 717.607798 809.378409 678.939103 838.624501 630.566396z" p-id="7261"></path><path d="M856.00331 592.335676c-0.478907 6.472412-2.288113 11.614525-6.951319 13.902638C849.530898 599.765903 851.33908 594.622766 856.00331 592.335676z" p-id="7262"></path><path d="M862.953605 571.482743c0.522909 8.631588-1.794879 14.424524-6.950296 17.376763C857.924055 582.673619 857.787956 574.424748 862.953605 571.482743z" p-id="7263"></path><path d="M869.904924 543.67849c0.345877 10.772344-1.574868 19.278065-6.951319 24.328082C864.30437 558.930869 864.739275 548.939307 869.904924 543.67849z" p-id="7264"></path><path d="M852.527139 362.951359c10.942213 23.811312 18.791995 50.716078 20.852934 83.412758C866.134041 418.853553 859.345428 390.889665 852.527139 362.951359z" p-id="7265"></path><path d="M560.582997 109.237937C711.526801 139.019217 804.782741 226.491431 852.527139 359.475188 800.859385 230.416833 706.697819 143.849222 560.582997 109.237937z" p-id="7266"></path><path d="M359.002932 119.664404c5.050016-5.376451 13.555737-7.297197 24.328082-6.950296C378.070196 117.879758 368.078635 118.311593 359.002932 119.664404z" p-id="7267"></path><path d="M251.262092 157.895123c-24.572652 22.306029-49.5403 41.816384-69.51012 59.083653-8.376785 7.242961-12.286838 10.769274-3.475148 0C185.674305 207.93582 225.350956 171.040515 251.262092 157.895123z" p-id="7268"></path><path d="M685.701622 766.111488c2.288113-4.66423 7.430226-6.472412 13.902638-6.951319C697.317171 763.824399 692.174034 765.633604 685.701622 766.111488z" p-id="7269"></path><path d="M654.423245 776.538979c6.655584-6.088672 18.120706-7.368828 27.804253-10.426467-0.859577 3.773953-6.910387 2.358721-6.951319 6.951319C664.645051 770.540358 665.052327 779.060405 654.423245 776.538979z" p-id="7270"></path><path d="M487.597729 776.538979c0-1.158383 0-2.318812 0-3.475148 9.075703 1.350764 19.067264 1.784646 24.329105 6.951319-3.475148 0-6.951319 0-10.426467 0C498.403842 777.315668 493.652632 776.277012 487.597729 776.538979z" p-id="7271"></path><path d="M466.743772 769.58766c-0.858554-3.773953-6.910387-2.359744-6.950296-6.951319 6.472412 0.478907 11.614525 2.287089 13.901615 6.951319-1.160429 0-2.314719 0-3.475148 0S467.905224 769.58766 466.743772 769.58766z" p-id="7272"></path><path d="M449.365986 762.636341c-5.619998-7.124258-16.72594-8.762571-24.328082-13.901615-1.160429 0-2.314719 0-3.475148 0-0.657986-2.814092-3.489474-3.465938-3.475148-6.951319 12.30321 7.392364 27.878954 11.509125 38.23072 20.852934-1.160429 0-2.314719 0-3.475148 0S450.527438 762.636341 449.365986 762.636341z" p-id="7273"></path><path d="M404.183947 738.307236c-1.227967-4.564969-6.119371-5.468548-6.950296-10.426467 5.219885 5.203512 14.635325 6.217608 17.377786 13.902638-2.817162-0.661056-3.461845-3.485381-6.951319-3.475148C406.499689 738.307236 405.3454 738.307236 404.183947 738.307236z" p-id="7274"></path><path d="M393.758504 727.880769c-6.129604-3.13848-10.763135-7.776104-13.901615-13.901615C385.98547 717.117634 390.619 721.755258 393.758504 727.880769z" p-id="7275"></path><path d="M376.380718 713.979154c-13.667278-8.341992-21.087271-22.937408-34.754548-31.279401 0-1.157359 0-2.318812 0-3.475148-1.025353-7.087419-9.402137-6.815219-10.426467-13.901615C347.496877 680.30317 361.311511 697.768961 376.380718 713.979154z" p-id="7276"></path><path d="M331.198679 661.84682c-8.159844-1.110287-7.779174-10.755971-13.901615-13.902638 0.562818-4.042059-0.76748-6.183839-3.475148-6.951319-3.381004-0.095167-2.695389-4.251837-3.475148-6.950296C321.946968 638.660748 323.1207 653.707442 331.198679 661.84682z" p-id="7277"></path><path d="M289.491789 588.859505c8.085142 3.502777 11.207249 11.963473 10.426467 24.328082 0 1.157359 0 2.318812 0 3.475148-5.641487-5.943362-10.521634-12.649088-10.426467-24.328082C289.491789 591.178317 289.491789 590.016865 289.491789 588.859505z" p-id="7278"></path><path d="M317.297065 331.670935c-17.072841 16.525372-17.799388 49.393967-34.755572 66.034972 0-1.159406 0-2.316765 0-3.475148 6.186909-22.773679 14.631232-43.293015 27.804253-59.083653C313.162908 334.487074 313.80759 331.659679 317.297065 331.670935z" p-id="7279"></path><path d="M341.625146 289.965068c3.095501-1.541099 6.217608-3.051499 6.950296-6.950296 14.818497-9.511631 23.412223-25.242917 38.23072-34.755572-13.609972 16.514115-28.6669 31.573089-45.182039 45.182039C341.625146 292.281833 341.625146 291.124474 341.625146 289.965068z" p-id="7280"></path><path d="M202.604906 230.881414c4.988618-10.07138 15.788591-14.329357 27.804253-17.377786 0 2.316765 0 4.634554 0 6.951319-10.345626 1.240247-17.635659 5.536087-24.329105 10.426467C204.918601 230.881414 203.765335 230.881414 202.604906 230.881414z" p-id="7281"></path><path d="M341.625146 289.965068c7.900947-18.7439 24.546046-28.743648 38.23072-41.705867-8.341992 13.667278-22.937408 21.087271-31.279401 34.755572C347.842755 286.913569 344.720647 288.423969 341.625146 289.965068z" p-id="7282"></path><path d="M310.345746 335.147106c-13.173021 15.790638-21.617343 36.309974-27.804253 59.083653-4.982478 4.285606-6.584975 11.952216-6.951319 20.852934 0 1.159406 0 2.316765 0 3.475148-7.534604-0.585331-1.574868 12.326746-3.475148 17.377786-7.534604-0.583285-1.574868 12.326746-3.475148 17.377786 0 4.6366 0 9.266038 0 13.901615-5.742794 2.641153-5.742794 28.639271 0 31.279401 0 1.160429 0 2.314719 0 3.475148 0 4.6366 0 9.266038 0 13.901615 0.288572 5.501294-1.670036 13.257955 3.475148 13.901615 1.252527 21.919219 5.783727 40.555671 13.901615 55.608505-0.563842 4.042059 0.76748 6.183839 3.475148 6.951319-0.095167 11.678994 4.786003 18.385742 10.426467 24.328082 0.478907 6.472412 2.287089 11.615549 6.950296 13.902638 0 2.317789 0 4.632507 0 6.951319-41.11542-16.807804-70.365604-45.483914-86.887906-86.888929-18.891256 8.912997-21.469987 34.137495-24.328082 59.083653 0 1.158383 0 2.318812 0 3.475148-7.772011 1.497097-1.408069 17.130146-3.475148 24.329105-22.930245 4.075829-43.334971-53.745065-55.608505-83.413781 0-1.157359 0-2.317789 0-3.475148-0.288572-5.501294 1.670036-13.256932-3.475148-13.901615 0-1.157359 0-2.318812 0-3.475148 0-3.475148 0-6.951319 0-10.426467-14.83794 4.857635-18.259876 21.128203-24.328082 34.754548 0 1.157359 0 2.318812 0 3.475148-6.848988 5.89629-9.323343 16.163121-10.426467 27.804253 0 1.157359 0 2.318812 0 3.475148-4.717442 1.076518-2.8847 8.702196-3.475148 13.902638 0 1.157359 0 2.317789 0 3.475148-8.596795-1.315972 1.022283 33.017998-6.950296 20.853957 0.441045-6.235005-4.256954-7.330966-3.475148-13.902638-4.219091-6.207375-0.63445-20.218484-6.951319-24.328082 0-1.157359 0-2.318812 0-3.475148-0.288572-5.501294 1.670036-13.256932-3.475148-13.901615 0-3.475148 0-6.951319 0-10.426467-1.90028-5.051039 4.059456-17.965164-3.475148-17.376763-0.288572-5.502317 1.670036-13.257955-3.475148-13.902638 0-16.220427 0-32.440853 0-48.657186 4.717442-1.076518 2.8847-8.702196 3.475148-13.901615 7.676843-0.434905 1.476631-14.743796 3.475148-20.852934 0-3.475148 0-6.950296 0-10.426467 4.717442-1.075495 2.8847-8.702196 3.475148-13.901615 0-2.316765 0-4.634554 0-6.951319 4.717442-1.075495 2.8847-8.702196 3.475148-13.901615 4.717442-1.075495 2.8847-8.702196 3.475148-13.901615 5.647627-8.253988 6.750751-21.053502 10.426467-31.279401 7.215332-0.892323 0.950651-15.269775 6.951319-17.376763 7.140631-0.969071 6.936993-9.282411 10.426467-13.902638 3.821025-12.396331 14.784728-17.654079 17.377786-31.279401 6.129604-3.139503 10.762111-7.774057 13.901615-13.901615 5.484921-8.419763 12.435217-15.370059 20.852934-20.852934 6.129604-3.139503 10.763135-7.774057 13.901615-13.901615 12.062733-2.997264 19.285229-10.835789 27.804253-17.377786 6.693446-4.89038 13.983479-9.18622 24.329105-10.426467 10.039657-6.180769 26.185382-6.251378 34.754548-13.901615 10.619872 2.512217 12.666484-3.553942 20.852934-3.475148 5.505387-0.288572 13.256932 1.672082 13.901615-3.475148 4.6366 0 9.266038 0 13.901615 0 10.426467 0 20.852934 0 31.279401 0 4.635577 0 9.266038 0 13.901615 0-0.584308 7.53665 12.326746 1.574868 17.376763 3.475148 2.314719 0 4.6366 0 6.951319 0 3.50994 5.756097 14.761192 3.773953 20.852934 6.951319 7.263427-1.471514 9.204639 2.382257 13.902638 3.475148 5.609765 13.882172-26.752294 16.311501-31.279401 31.279401-2.817162 0.661056-3.461845 3.487428-6.951319 3.475148-13.684674 12.96222-30.329772 22.961968-38.23072 41.705867C328.347748 302.177204 316.501956 315.815829 310.345746 335.147106z" p-id="7283"></path><path d="M195.653587 609.712439c2.858094-24.946159 5.436826-50.170656 24.328082-59.083653 16.522302 41.405015 45.772486 70.081125 86.887906 86.888929 0-2.318812 0-4.63353 0-6.951319 0-1.157359 0-2.318812 0-3.475148 2.708692 0.766456 4.03899 2.90926 3.475148 6.951319 0.780783 2.698458 0.095167 6.855128 3.475148 6.950296-39.187511-6.010901-77.05905-43.413765-93.839225-83.412758C200.045617 563.133587 205.22457 593.799004 195.653587 609.712439z" p-id="7284"></path><path d="M136.56891 554.104957c12.273535 29.667693 32.67826 87.48961 55.608505 83.413781 2.067079-7.198959-4.296863-22.833031 3.475148-24.329105 0 12.745279 0 25.486464 0 38.23072C164.849 630.090559 145.679405 597.128843 136.56891 554.104957z" p-id="7285"></path><path d="M133.093762 533.252023c-2.956332 0.638543-3.278673-1.353834-3.475148-3.475148-10.715039 5.505387-12.19167 20.249183-20.852934 27.804253 6.068206-13.626345 9.490142-29.897937 24.328082-34.754548C133.093762 526.300704 133.093762 529.775852 133.093762 533.252023z" p-id="7286"></path><path d="M108.765681 561.056276c-3.061732 9.683547-4.337795 21.148669-10.426467 27.804253C99.441315 577.219397 101.915669 566.951543 108.765681 561.056276z" p-id="7287"></path><path d="M101.814362 342.098425c0.190335-4.443196 4.453429-4.812609 3.475148-10.426467 2.817162-0.660032 3.461845-3.487428 6.951319-3.475148C108.751355 332.816015 108.954993 341.129354 101.814362 342.098425z" p-id="7288"></path><path d="M129.618615 296.916387c1.228991-4.564969 6.119371-5.466502 6.950296-10.426467 2.817162-0.660032 3.461845-3.487428 6.951319-3.475148C140.380726 289.14233 135.748219 293.776883 129.618615 296.916387z" p-id="7289"></path><path d="M136.56891 286.48992c6.584975-14.266935 19.014052-22.690792 31.279401-31.279401-0.659009 2.815115-3.489474 3.463891-3.475148 6.950296-8.417717 5.482875-15.368012 12.434194-20.852934 20.852934C140.031778 283.002492 139.386072 285.829887 136.56891 286.48992z" p-id="7290"></path><path d="M164.373163 262.160815c-0.013303-3.487428 2.817162-4.136204 3.475148-6.950296 3.89982-0.734734 5.41022-3.857864 6.950296-6.951319 1.161453 0 2.314719 0 3.475148 0C175.136298 254.386758 170.50379 259.021312 164.373163 262.160815z" p-id="7291"></path><path d="M178.275801 248.2592c5.135974-8.766664 13.440104-14.364149 24.329105-17.377786 1.160429 0 2.314719 0 3.475148 0C197.56103 237.423411 190.338534 245.261936 178.275801 248.2592z" p-id="7292"></path><path d="M348.576465 283.014772c8.343015-13.668301 22.937408-21.087271 31.279401-34.755572 3.489474 0.01228 4.134157-2.815115 6.951319-3.475148 4.564969-1.228991 5.464455-6.119371 10.426467-6.950296-1.948375 5.004991-5.423523 8.480138-10.426467 10.426467C371.988688 257.770831 363.394962 273.502118 348.576465 283.014772z" p-id="7293"></path><path d="M105.28951 331.670935c6.791683-18.696828 15.921621-35.053354 31.279401-45.182039-0.831948 4.960988-5.722328 5.861498-6.950296 10.426467-2.593058 13.625322-13.556761 18.883069-17.377786 31.279401C108.751355 328.184531 108.106672 331.010903 105.28951 331.670935z" p-id="7294"></path><path d="M431.989223 296.916387c1.472538-15.903202 7.568373-27.185152 24.328082-27.804253 0.638543 2.956332-1.357927 3.278673-3.475148 3.475148-8.699126-0.588401-10.880815 5.338588-13.901615 10.426467-2.701528 3.093455-3.737114 7.848759-3.475148 13.901615C434.303942 296.916387 433.149653 296.916387 431.989223 296.916387z" p-id="7295"></path><path d="M431.989223 672.272263c1.160429 0 2.314719 0 3.475148 0-1.472538 7.263427 2.38328 9.201569 3.475148 13.902638 1.228991 4.564969 6.119371 5.467525 6.951319 10.425444C437.575452 692.175569 431.741583 685.265182 431.989223 672.272263z" p-id="7296"></path><path d="M466.743772 700.076516c0.522909-6.427386 11.770068-2.131547 13.901615-6.950296 2.817162-0.662079 3.461845-3.486404 6.951319-3.475148C484.440829 696.92064 477.340107 700.246385 466.743772 700.076516z" p-id="7297"></path><path d="M511.926834 675.748435c4.424776-10.634198 19.902282-10.218736 24.328082-20.852934 9.482979 2.532683 6.995321-6.907317 13.901615-6.951319 2.814092-0.661056 3.465938-3.485381 6.951319-3.475148C544.706401 657.552004 527.823895 666.160055 511.926834 675.748435z" p-id="7298"></path><path d="M581.43593 630.566396c8.105608-12.748349 26.649963-15.056927 34.755572-27.804253 9.482979 2.53166 6.995321-6.907317 13.901615-6.951319 2.814092-0.661056 3.465938-3.485381 6.951319-3.475148C621.129978 607.700619 600.839863 618.690928 581.43593 630.566396z" p-id="7299"></path><path d="M661.373541 578.434062c8.105608-12.748349 26.650987-15.056927 34.755572-27.805276 11.406794-1.337461 15.325034-10.161431 24.328082-13.901615 2.814092-0.661056 3.465938-3.485381 6.951319-3.475148C707.997418 550.911218 684.270017 564.259224 661.373541 578.434062z" p-id="7300"></path><path d="M741.311151 526.300704c4.458545-9.442046 17.801435-10.001795 20.852934-20.852934 0-1.160429 0-2.314719 0-3.475148 2.813069-0.657986 3.464915-3.488451 6.950296-3.475148C763.680625 511.597841 754.414587 520.866948 741.311151 526.300704z" p-id="7301"></path><path d="M765.639233 463.74088c-6.126534-3.139503-10.763135-7.772011-13.902638-13.901615C757.864152 452.978768 762.499729 457.611276 765.639233 463.74088z" p-id="7302"></path><path d="M720.457194 432.461479c-6.906294-0.044002-4.418636-9.482979-13.901615-6.950296-8.105608-12.748349-26.650987-15.055904-34.755572-27.804253 19.403932 11.875468 39.693024 22.865777 55.608505 38.23072C723.923132 435.950953 723.271286 433.120488 720.457194 432.461479z" p-id="7303"></path><path d="M640.520607 380.329145c-9.005095-3.738138-12.921287-12.5662-24.328082-13.901615-8.105608-12.748349-26.649963-15.055904-34.755572-27.804253 22.896476 14.175861 46.6249 27.522844 66.034972 45.182039C643.985522 383.815549 643.334699 380.989177 640.520607 380.329145z" p-id="7304"></path><path d="M546.680359 321.244468c-8.104585-12.748349-26.649963-15.055904-34.754548-27.804253 15.897062 9.588379 32.779567 18.195408 45.181015 31.279401-3.485381 0.011256-4.137227-2.815115-6.951319-3.475148C548.999171 321.244468 547.837718 321.244468 546.680359 321.244468z" p-id="7305"></path><path d="M480.64641 276.063453c-2.131547-4.817726-13.379729-0.522909-13.901615-6.950296 10.596336-0.169869 17.696034 3.157923 20.852934 10.426467C484.108255 279.550881 483.463572 276.723485 480.64641 276.063453z" p-id="7306"></path><path d="M438.939519 283.014772c3.0208-5.087878 5.202489-11.015891 13.901615-10.426467C449.427384 277.285281 443.568956 279.533484 438.939519 283.014772z" p-id="7307"></path><path d="M480.64641 276.063453c2.817162 0.660032 3.461845 3.487428 6.951319 3.475148 9.004071 3.738138 12.920264 12.5662 24.329105 13.901615 8.104585 12.748349 26.649963 15.055904 34.754548 27.804253-23.61586-12.297071-42.419112-29.40982-66.034972-41.705867C480.64641 278.379195 480.64641 277.221836 480.64641 276.063453z" p-id="7308"></path><path d="M550.15653 321.244468c2.814092 0.660032 3.465938 3.487428 6.951319 3.475148 9.004071 3.738138 12.921287 12.5662 24.328082 13.901615 8.105608 12.748349 26.649963 15.055904 34.755572 27.804253-23.61586-12.297071-42.419112-29.40982-66.034972-41.705867C550.15653 323.561233 550.15653 322.403874 550.15653 321.244468z" p-id="7309"></path><path d="M640.520607 380.329145c2.814092 0.660032 3.465938 3.487428 6.951319 3.475148 9.004071 3.738138 12.921287 12.5662 24.328082 13.901615 8.104585 12.748349 26.649963 15.055904 34.755572 27.804253-23.61586-12.297071-42.419112-29.40982-66.034972-41.705867C640.520607 382.644887 640.520607 381.488551 640.520607 380.329145z" p-id="7310"></path><path d="M720.457194 432.461479c2.814092 0.659009 3.465938 3.489474 6.951319 3.475148 9.005095 3.740184 12.921287 12.565177 24.328082 13.901615 3.139503 6.129604 7.776104 10.763135 13.902638 13.901615-0.981351 5.613858 3.284813 5.984295 3.475148 10.426467 0 6.951319 0 13.901615 0 20.852934 0 1.160429 0 2.314719 0 3.475148-3.485381-0.013303-4.137227 2.817162-6.950296 3.475148 15.839757-38.362726-19.841907-53.924143-41.706891-66.034972C720.457194 434.776198 720.457194 433.621908 720.457194 432.461479z" p-id="7311"></path><path d="M720.457194 536.727171c11.183713-13.145391 29.185716-19.47147 41.706891-31.279401-3.051499 10.851139-16.394389 11.410887-20.852934 20.852934-9.484002-2.53166-6.995321 6.907317-13.902638 6.951319C723.923132 533.24179 723.271286 536.066115 720.457194 536.727171z" p-id="7312"></path><path d="M630.093117 595.810824c19.411095-17.659195 43.138496-31.008224 66.034972-45.182039-8.104585 12.748349-26.649963 15.056927-34.755572 27.805276-11.406794 1.337461-15.32401 10.161431-24.328082 13.901615C633.559055 592.325443 632.907209 595.149768 630.093117 595.810824z" p-id="7313"></path><path d="M550.15653 647.944182c19.411095-17.659195 43.138496-31.008224 66.034972-45.181015-8.105608 12.747325-26.649963 15.055904-34.755572 27.804253-11.406794 1.337461-15.325034 10.161431-24.328082 13.901615C553.622468 644.458801 552.970622 647.282103 550.15653 647.944182z" p-id="7314"></path><path d="M480.64641 693.12622c15.914458-15.365966 36.204573-26.355251 55.608505-38.23072-4.425799 10.634198-19.903306 10.218736-24.328082 20.852934-11.407817 1.337461-15.325034 10.162454-24.329105 13.902638C484.108255 689.639816 483.463572 692.464141 480.64641 693.12622z" p-id="7315"></path><path d="M445.890838 696.601368c-0.831948-4.958942-5.722328-5.861498-6.951319-10.425444 4.629437 3.481288 10.487865 5.729491 13.901615 10.425444C450.527438 696.601368 448.205557 696.601368 445.890838 696.601368z" p-id="7316"></path><path d="M341.625146 293.441239c-10.454096 10.399861-17.921161 23.785729-24.328082 38.23072-3.489474-0.01228-4.134157 2.815115-6.951319 3.475148 6.157233-19.331277 18.002003-32.969902 31.279401-45.182039C341.625146 291.124474 341.625146 292.281833 341.625146 293.441239z" p-id="7317"></path><path d="M317.297065 647.944182c6.122441 3.146667 5.742794 12.792351 13.901615 13.902638 0 1.157359 0 2.317789 0 3.475148 1.02433 7.086395 9.401114 6.814196 10.426467 13.901615C330.686003 671.627581 322.465784 661.309584 317.297065 647.944182z" p-id="7318"></path><path d="M341.625146 682.699754c13.667278 8.341992 21.087271 22.937408 34.754548 31.279401 1.161453 0 2.314719 0 3.475148 0 3.139503 6.125511 7.773034 10.763135 13.901615 13.901615 1.160429 0 2.314719 0 3.475148 0 0.831948 4.958942 5.722328 5.862521 6.950296 10.426467C380.693953 722.409151 358.894462 704.821587 341.625146 682.699754z" p-id="7319"></path><path d="M407.660118 738.307236c3.489474-0.010233 4.134157 2.814092 6.951319 3.475148 1.160429 0 2.314719 0 3.475148 0-0.014326 3.485381 2.817162 4.137227 3.475148 6.951319-5.142114-1.810229-8.760524-5.142114-13.901615-6.951319C407.660118 740.626048 407.660118 739.464595 407.660118 738.307236z" p-id="7320"></path><path d="M425.037904 748.734726c7.603165 5.13802 18.708084 6.777357 24.328082 13.901615C439.282327 759.974721 429.375699 757.138116 425.037904 748.734726z" p-id="7321"></path><path d="M452.842157 762.636341c1.160429 0 2.314719 0 3.475148 0s2.314719 0 3.475148 0c0.040932 4.591575 6.092765 3.176342 6.950296 6.951319C460.27136 769.108752 455.129246 767.299547 452.842157 762.636341z" p-id="7322"></path><path d="M470.219943 769.58766c1.160429 0 2.314719 0 3.475148 0 4.696975 1.092891 6.638187 4.948709 13.901615 3.475148 0 1.157359 0 2.317789 0 3.475148C478.966141 777.061888 473.172181 774.743076 470.219943 769.58766z" p-id="7323"></path><path d="M675.275155 773.062807c0.040932-4.592598 6.091742-3.176342 6.951319-6.951319 1.157359 0 2.317789 0 3.475148 0 6.472412-0.478907 11.615549-2.287089 13.902638-6.951319 10.68127-0.906649 15.628956-7.540743 24.328082-10.425444 49.577139-28.045753 88.798419-66.443271 114.692159-118.16833 4.89038-6.693446 9.185196-13.983479 10.426467-24.328082 4.663206-2.288113 6.472412-7.430226 6.951319-13.902638 0-1.157359 0-2.318812 0-3.475148 5.155417-2.953262 7.473205-8.746198 6.950296-17.376763 0-1.157359 0-2.318812 0-3.475148 5.376451-5.051039 7.297197-13.555737 6.951319-24.328082 0-1.157359 0-2.318812 0-3.475148 7.537673 0.586354 1.574868-12.32777 3.475148-17.377786 0-1.157359 0-2.317789 0-3.475148 5.779633-15.143908 5.779633-54.366212 0-69.51012 0-1.160429 0-2.314719 0-3.475148-2.060939-32.69668-9.910721-59.601446-20.852934-83.412758 0-1.159406 0-2.316765 0-3.475148C804.782741 226.491431 711.526801 139.019217 560.582997 109.237937c-1.157359 0-2.318812 0-3.475148 0-0.434905-7.67582-14.743796-1.476631-20.852934-3.475148-1.158383 0-2.318812 0-3.475148 0-26.683732-5.786797-77.581959-5.786797-104.265692 0-1.160429 0-2.314719 0-3.475148 0-6.109138 1.99954-20.419052-4.199649-20.852934 3.475148-1.160429 0-2.314719 0-3.475148 0-5.505387 0.288572-13.257955-1.672082-13.901615 3.475148-1.160429 0-2.314719 0-3.475148 0-10.772344-0.345877-19.278065 1.574868-24.328082 6.950296-1.160429 0-2.314719 0-3.475148 0-103.030561 29.037337-171.502026 92.63377-229.384317 166.824493 63.588247-110.188588 163.756621-183.795003 305.845757-215.482703 1.160429 0 2.314719 0 3.475148 0 16.705474-0.673335 33.091676-1.662873 45.182039-6.950296 20.852934 0 41.705867 0 62.558801 0 241.627153 37.573757 380.484687 177.917132 413.58762 424.013063 0 16.217357 0 32.437783 0 48.657186-9.229199 35.953863-13.665231 76.698846-24.328082 111.217011 0 1.157359 0 2.318812 0 3.475148-6.958482 4.626367-7.741311 15.426341-10.426467 24.328082 0 1.157359 0 2.318812 0 3.475148-39.998993 86.278016-99.496062 153.058978-173.775812 205.056236-1.157359 0-2.317789 0-3.475148 0-17.238616 11.722996-38.851866 19.074428-55.608505 31.279401-1.157359 0-2.317789 0-3.475148 0-1.157359 0-2.317789 0-3.475148 0 48.130184-34.582633 146.264225-71.119781 170.300664-135.545092 17.027815-45.63741 9.193383-107.327424 3.475148-166.825516C814.337351 685.057451 761.474376 745.730299 675.275155 773.062807zM178.275801 216.978776c-8.810666 10.769274-4.900613 7.242961 3.475148 0 19.970844-17.267269 44.937468-36.777625 69.51012-59.083653C225.350956 171.040515 185.674305 207.93582 178.275801 216.978776z" p-id="7324"></path><path d="M664.848689 922.510538c2.287089-4.66423 7.430226-6.472412 13.902638-6.951319-0.859577 3.773953-6.910387 2.358721-6.951319 6.951319-1.157359 0-2.318812 0-3.475148 0S666.006048 922.510538 664.848689 922.510538z" p-id="7325"></path><path d="M602.288864 939.888324c10.101055-6.116301 24.51944-7.918343 38.23072-10.426467 0 1.157359 0 2.318812 0 3.475148-10.728342 0.855484-19.648502 3.523243-27.804253 6.951319C609.240183 939.888324 605.765035 939.888324 602.288864 939.888324z" p-id="7326"></path><path d="M390.282333 932.937005c-17.153682-0.221034-24.552186-10.206456-41.705867-10.425444-0.861624-3.773953-6.910387-2.359744-6.950296-6.951319C358.269221 920.924413 376.574123 924.631852 390.282333 932.937005z" p-id="7327"></path><path d="M327.723531 912.084071c-10.92891-4.130064-18.388812-11.733229-31.279401-13.902638-0.659009-2.813069-3.489474-3.464915-3.475148-6.950296 12.30321 7.392364 27.878954 11.509125 38.23072 20.852934C330.037227 912.084071 328.883961 912.084071 327.723531 912.084071z" p-id="7328"></path><path d="M279.065322 887.754966c-0.335644-8.93244-13.56597-4.969175-13.901615-13.902638 8.722662 5.176906 19.142989 8.662287 24.328082 17.377786-2.816139-0.662079-3.461845-3.485381-6.950296-3.475148C281.381064 887.754966 280.226774 887.754966 279.065322 887.754966z" p-id="7329"></path><path d="M261.688559 873.852328c-40.653909-25.381064-71.871911-60.19701-104.265692-93.838202-5.495154-15.358803-17.303085-24.403806-24.329105-38.23072-0.657986-2.814092-3.489474-3.465938-3.475148-6.951319C166.091294 788.723485 210.681862 834.494948 261.688559 873.852328z" p-id="7330"></path><path d="M122.667296 727.880769c0.977257-5.612834-3.284813-5.983271-3.475148-10.425444-5.13802-7.603165-6.77838-18.708084-13.901615-24.328082 0.978281-5.613858-3.284813-5.984295-3.475148-10.426467 0-1.157359 0-2.318812 0-3.475148 11.627828 15.019065 18.117636 35.173081 27.804253 52.132334C126.801453 730.694861 126.15677 727.870536 122.667296 727.880769z" p-id="7331"></path><path d="M91.387895 654.895501c5.552459 4.874007 8.879228 11.973706 10.426467 20.852934-7.154957-0.953721-3.272533-12.947893-10.426467-13.901615C91.387895 659.528008 91.387895 657.213289 91.387895 654.895501z" p-id="7332"></path><path d="M87.912747 640.992863c11.42419 18.72241 5.491061-19.190061 6.950296-31.279401 0-1.157359 0-2.317789 0-3.475148 4.717442-1.076518 2.8847-8.703219 3.475148-13.902638 0-1.157359 0-2.318812 0-3.475148 6.088672-6.655584 7.364735-18.120706 10.426467-27.804253 0-1.157359 0-2.318812 0-3.475148 8.661264-7.55507 10.137895-22.298865 20.852934-27.804253 0.196475 2.121314 0.518816 4.114714 3.475148 3.475148 0 1.157359 0 2.318812 0 3.475148 0.288572 5.501294-1.670036 13.256932 3.475148 13.901615 0 1.158383 0 2.318812 0 3.475148 9.109472 43.023886 28.279067 75.986625 59.083653 97.315396 0-12.744255 0-25.485441 0-38.23072 0-1.157359 0-2.317789 0-3.475148 9.572006-15.914458 4.39203-46.579875 24.328082-52.132334 16.780175 39.998993 54.651714 77.401858 93.839225 83.412758 2.707668 0.76748 4.03899 2.90926 3.475148 6.951319 5.16872 13.366426 13.388938 23.684422 24.328082 31.279401 0 1.157359 0 2.318812 0 3.475148 17.268292 22.121833 39.068807 39.71042 62.558801 55.608505 1.161453 0 2.314719 0 3.475148 0 0 1.157359 0 2.318812 0 3.475148 5.142114 1.809205 8.760524 5.14109 13.901615 6.951319 1.160429 0 2.314719 0 3.475148 0 4.337795 8.403391 14.244422 11.239995 24.328082 13.901615 1.160429 0 2.314719 0 3.475148 0 2.287089 4.66423 7.429203 6.472412 13.901615 6.951319 1.160429 0 2.314719 0 3.475148 0 2.953262 5.155417 8.746198 7.474228 17.377786 6.951319 6.054903-0.261966 10.806113 0.776689 13.901615 3.475148 1.075495 4.716418 8.702196 2.883677 13.901615 3.475148 1.158383 0 2.318812 0 3.475148 0-0.586354 7.538697 12.32777 1.574868 17.377786 3.475148 3.475148 0 6.950296 0 10.425444 0 11.69639 5.777587 47.388287 5.777587 59.083653 0 2.318812 0 4.632507 0 6.951319 0 5.051039-1.90028 17.965164 4.063549 17.376763-3.475148 1.158383 0 2.318812 0 3.475148 0 5.502317-0.287549 13.256932 1.670036 13.902638-3.475148 2.956332 0.63752 3.278673-1.354857 3.475148-3.475148 1.157359 0 2.317789 0 3.475148 0 10.630105 2.521426 10.221806-5.997598 20.852934-3.475148 86.198198-27.332509 139.062196-88.005356 180.727131-159.874197 5.718235 59.499116 13.551644 121.18913-3.475148 166.825516-24.036439 64.425312-122.17048 100.962459-170.300664 135.545092-1.158383 0-2.318812 0-3.475148 0-6.472412 0.478907-11.615549 2.287089-13.902638 6.951319-7.724938 2.701528-13.552667 7.300266-24.328082 6.950296-13.71128 2.508123-28.129664 4.311189-38.23072 10.426467-1.157359 0-2.317789 0-3.475148 0-5.501294 0.288572-13.256932-1.670036-13.901615 3.475148-1.157359 0-2.318812 0-3.475148 0-6.109138 1.998517-20.418029-4.201695-20.852934 3.475148-3.475148 0-6.951319 0-10.426467 0-26.646893 0-53.293787 0-79.936587 0-2.314719 0-4.6366 0-6.951319 0-0.433882-7.677866-14.743796-1.476631-20.852934-3.475148-2.314719 0-4.6366 0-6.951319 0-1.075495-4.717442-8.702196-2.8847-13.901615-3.475148-12.951987 0.210801-21.979594-3.505847-31.279401-6.951319-13.70821-8.305153-32.013111-12.011568-48.657186-17.376763-5.613858 0.980327-5.984295-3.285836-10.426467-3.475148-10.351766-9.343809-25.927509-13.46057-38.23072-20.852934-1.160429 0-2.314719 0-3.475148 0-5.186116-8.716522-15.60542-12.201903-24.328082-17.377786-1.160429 0-2.314719 0-3.475148 0-51.005674-39.35738-95.597265-85.128843-132.069945-139.02024 0-1.157359 0-2.318812 0-3.475148-9.686616-16.959254-16.176424-37.114293-27.804253-52.132334 0-1.157359 0-2.318812 0-3.475148-1.548262-8.879228-4.874007-15.978926-10.426467-20.852934C88.686367 651.80307 87.650781 647.047766 87.912747 640.992863zM306.869574 814.768675c-6.598278 16.573467-21.097504 25.244964-20.852934 48.65821 49.525973 45.055149 138.918933 84.813664 232.859465 62.558801 0.977257-11.766998 5.528923-19.956517 3.475148-34.754548C436.26562 880.002398 371.921149 847.032496 306.869574 814.768675z" p-id="7333"></path><path d="M640.520607 929.460834c10.775414 0.349971 16.604166-4.248767 24.328082-6.950296 1.157359 0 2.318812 0 3.475148 0-5.895267 6.844895-16.162098 9.322319-27.804253 10.425444C640.520607 931.779645 640.520607 930.618193 640.520607 929.460834z" p-id="7334"></path><path d="M671.800008 922.510538c0.040932-4.592598 6.091742-3.176342 6.951319-6.951319 1.157359 0 2.317789 0 3.475148 0 1.157359 0 2.317789 0 3.475148 0C683.414533 920.222425 678.272419 922.031631 671.800008 922.510538z" p-id="7335"></path><path d="M689.17677 915.559219c16.756639-12.205996 38.369889-19.556405 55.608505-31.279401C730.886731 899.342886 710.149431 907.570267 689.17677 915.559219z" p-id="7336"></path><path d="M91.387895 661.84682c7.154957 0.953721 3.27151 12.947893 10.426467 13.901615 0 1.157359 0 2.318812 0 3.475148s0 2.318812 0 3.475148C96.261902 677.825746 92.935134 670.725024 91.387895 661.84682z" p-id="7337"></path><path d="M105.28951 693.12622c7.124258 5.619998 8.763594 16.72594 13.901615 24.328082C110.788757 713.116507 107.951129 703.20988 105.28951 693.12622z" p-id="7338"></path><path d="M122.667296 727.880769c3.489474-0.010233 4.134157 2.814092 6.951319 3.475148 0 1.157359 0 2.318812 0 3.475148-0.014326 3.485381 2.817162 4.137227 3.475148 6.951319C125.952108 740.812289 126.15677 732.500996 122.667296 727.880769z" p-id="7339"></path><path d="M157.422867 780.014126c32.392758 33.641191 63.611783 68.457138 104.265692 93.838202 1.161453 0 2.314719 0 3.475148 0 0.336668 8.93244 13.56597 4.969175 13.901615 13.902638C230.765269 859.594603 190.50124 823.400263 157.422867 780.014126z" p-id="7340"></path><path d="M282.541493 887.754966c3.489474-0.010233 4.134157 2.813069 6.950296 3.475148 1.161453 0 2.314719 0 3.475148 0-0.013303 3.485381 2.817162 4.137227 3.475148 6.950296-5.142114-1.809205-8.760524-5.14109-13.901615-6.950296C282.541493 890.072755 282.541493 888.912325 282.541493 887.754966z" p-id="7341"></path><path d="M327.723531 912.084071c1.160429 0 2.314719 0 3.475148 0 4.442172 0.190335 4.812609 4.455475 10.426467 3.475148 0.040932 4.591575 6.088672 3.176342 6.950296 6.951319C339.697237 920.963299 332.596516 917.63653 327.723531 912.084071z" p-id="7342"></path><path d="M359.002932 196.125843c3.475148 0 6.950296 0 10.426467 0 0 1.159406 0 2.316765 0 3.475148-3.475148 0-6.951319 0-10.426467 0-4.6366 0-9.266038 0-13.901615 0 0-1.159406 0-2.316765 0-3.475148C349.736894 196.125843 354.366332 196.125843 359.002932 196.125843z" p-id="7343"></path><path d="M258.213411 206.55231c6.424316-5.15951 16.512069-6.65763 27.804253-6.950296 0 1.158383 0 2.316765 0 3.475148-8.18645-0.077771-10.233062 5.987365-20.852934 3.475148C262.848988 206.55231 260.527107 206.55231 258.213411 206.55231z" p-id="7344"></path><path d="M369.429399 196.125843c8.620331-0.511653 16.868179-0.64673 17.377786 6.950296-1.160429 0-2.314719 0-3.475148 0-2.314719 0-4.6366 0-6.951319 0-0.095167-3.37998-4.25593-2.696412-6.950296-3.475148C369.429399 198.442608 369.429399 197.285249 369.429399 196.125843z" p-id="7345"></path><path d="M386.807185 203.077162c4.6366 0 9.266038 0 13.901615 0 0.659009 2.815115 3.489474 3.463891 3.475148 6.951319-6.091742-3.176342-17.342993-1.194198-20.852934-6.951319C384.492466 203.077162 385.646755 203.077162 386.807185 203.077162z" p-id="7346"></path><path d="M230.409159 213.503629c7.622608-3.961218 14.20042-8.968256 27.804253-6.950296 2.314719 0 4.6366 0 6.950296 0-8.570189 7.650237-24.714891 7.720845-34.754548 13.901615C230.409159 218.138182 230.409159 215.820394 230.409159 213.503629z" p-id="7347"></path><path d="M418.086585 213.503629c-4.697999-1.092891-6.639211-4.946662-13.902638-3.475148 0.014326-3.487428-2.816139-4.136204-3.475148-6.951319 10.596336-0.169869 17.696034 3.157923 20.852934 10.426467C420.401304 213.503629 419.248038 213.503629 418.086585 213.503629z" p-id="7348"></path><path d="M421.561733 213.503629c5.980201-0.186242 8.909927 2.676969 10.426467 6.951319-16.084327 1.293459-19.698644 15.053857-34.755572 17.377786-4.962012 0.831948-5.861498 5.722328-10.426467 6.950296 4.527107-14.9679 36.890188-17.397229 31.279401-31.279401C419.248038 213.503629 420.401304 213.503629 421.561733 213.503629z" p-id="7349"></path><path d="M84.436576 387.279441c-1.778506-14.519692 1.938142-23.549346 6.950296-31.279401 2.118244 0.196475 4.113691 0.518816 3.475148 3.475148-3.675716 10.226922-4.77884 23.025413-10.426467 31.279401C84.436576 389.596206 84.436576 388.438846 84.436576 387.279441z" p-id="7350"></path><path d="M80.961428 397.706931c0.543376-4.090155-0.596588-9.864672 3.475148-10.426467 0 1.159406 0 2.316765 0 3.475148-0.590448 5.200442 1.242294 12.82612-3.475148 13.901615C80.961428 402.340461 80.961428 400.022673 80.961428 397.706931z" p-id="7351"></path><path d="M77.485257 411.608545c0.590448-5.200442-1.242294-12.82612 3.475148-13.901615 0 2.316765 0 4.634554 0 6.950296-0.590448 5.200442 1.242294 12.82612-3.475148 13.901615C77.485257 416.243099 77.485257 413.925311 77.485257 411.608545z" p-id="7352"></path><path d="M282.541493 397.706931c1.106194 8.058536-0.556679 13.343913-3.475148 17.376763-1.160429 0-2.314719 0-3.475148 0 0.366344-8.900717 1.968841-16.567327 6.951319-20.852934C282.541493 395.390165 282.541493 396.547525 282.541493 397.706931z" p-id="7353"></path><path d="M77.485257 418.559864c0 2.316765 0 4.634554 0 6.951319-1.160429 0-2.314719 0-3.475148 0 0.590448-5.200442-1.242294-12.82612 3.475148-13.901615C77.485257 413.925311 77.485257 416.243099 77.485257 418.559864z" p-id="7354"></path><path d="M279.065322 415.083693c-2.067079 7.201006 4.296863 22.832008-3.475148 24.329105 0-6.951319 0-13.901615 0-20.852934 0-1.159406 0-2.316765 0-3.475148C276.751626 415.083693 277.904892 415.083693 279.065322 415.083693z" p-id="7355"></path><path d="M275.590174 418.559864c0 6.951319 0 13.901615 0 20.852934 0 2.314719 0 4.6366 0 6.950296-1.160429 0-2.314719 0-3.475148 0 0-3.475148 0-6.950296 0-10.426467C274.015306 430.886611 268.05557 417.97351 275.590174 418.559864z" p-id="7356"></path><path d="M74.010109 439.412798c0 3.475148 0 6.950296 0 10.426467-1.161453 0-2.314719 0-3.475148 0 0-3.475148 0-6.950296 0-10.426467 0.543376-4.090155-0.597611-9.863648 3.475148-10.426467C74.010109 432.461479 74.010109 435.93765 74.010109 439.412798z" p-id="7357"></path><path d="M70.534961 453.314413c0 5.789866 0 11.586896 0 17.377786-0.590448 5.199419 1.242294 12.82612-3.475148 13.901615 0-10.426467 0-20.852934 0-31.279401C68.220243 453.314413 69.373509 453.314413 70.534961 453.314413z" p-id="7358"></path><path d="M275.590174 522.825556c-0.773619 22.783913 8.077979 35.94363 10.426467 55.608505 0 2.317789 0 4.632507 0 6.950296-8.118911-15.052834-12.650111-33.689287-13.901615-55.608505 0-2.317789 0-4.632507 0-6.950296C273.275455 522.825556 274.429745 522.825556 275.590174 522.825556z" p-id="7359"></path><path d="M70.534961 547.154661c0 4.632507 0 9.269108 0 13.901615-1.160429 0-2.314719 0-3.475148 0 0-9.269108 0-18.534122 0-27.804253C72.204997 533.896706 70.245366 541.652344 70.534961 547.154661z" p-id="7360"></path><path d="M74.010109 574.958914c0 2.317789 0 4.632507 0 6.950296-1.161453 0-2.314719 0-3.475148 0 0-2.317789 0-4.632507 0-6.950296 0-3.475148 0-6.951319 0-10.426467 1.160429 0 2.314719 0 3.475148 0C74.010109 568.007595 74.010109 571.482743 74.010109 574.958914z" p-id="7361"></path><path d="M289.491789 592.335676c-2.707668-0.76748-4.03899-2.90926-3.475148-6.951319 0-2.317789 0-4.632507 0-6.950296 4.049223 0.583285 3.773953 5.494131 3.475148 10.425444C289.491789 590.016865 289.491789 591.178317 289.491789 592.335676z" p-id="7362"></path><path d="M77.485257 592.335676c0 2.318812 0 4.632507 0 6.951319-7.596002-0.512676-7.459902-8.757454-6.950296-17.377786 1.160429 0 2.314719 0 3.475148 0-0.563842 4.042059 0.76748 6.184863 3.475148 6.951319C77.485257 590.016865 77.485257 591.178317 77.485257 592.335676z" p-id="7363"></path><path d="M80.961428 616.663758c-2.919493-4.034896-4.582365-9.31618-3.475148-17.376763 0-2.318812 0-4.632507 0-6.951319 6.316869 4.110621 2.732228 18.120706 6.951319 24.328082C83.276147 616.663758 82.121857 616.663758 80.961428 616.663758z" p-id="7364"></path><path d="M306.869574 630.566396c-4.663206-2.287089-6.472412-7.430226-6.950296-13.902638 0-1.157359 0-2.318812 0-3.475148 4.663206 2.288113 6.472412 7.430226 6.950296 13.902638C306.869574 628.248607 306.869574 629.409037 306.869574 630.566396z" p-id="7365"></path><path d="M84.436576 630.566396c-1.092891-4.701069-4.948709-6.639211-3.475148-13.902638 1.160429 0 2.314719 0 3.475148 0-0.780783 6.571672 3.917216 7.667633 3.475148 13.902638C86.751295 630.566396 85.597005 630.566396 84.436576 630.566396z" p-id="7366"></path><path d="M87.912747 640.992863c-4.049223-0.583285-3.773953-5.494131-3.475148-10.425444 1.160429 0 2.314719 0 3.475148 0 7.972579 12.164041-1.6465-22.169929 6.950296-20.853957C93.403808 621.802802 99.336938 659.715273 87.912747 640.992863z" p-id="7367"></path><path d="M299.919279 196.125843c4.6366 0 9.266038 0 13.901615 0 0 1.159406 0 2.316765 0 3.475148-4.6366 0-9.266038 0-13.901615 0-3.475148 0-6.951319 0-10.426467 0C290.076096 195.552791 294.983873 195.827037 299.919279 196.125843z" p-id="7368"></path><path d="M452.842157 272.587282c2.118244-0.196475 4.113691-0.518816 3.475148-3.475148 3.475148 0 6.950296 0 10.426467 0 0.522909 6.42841 11.770068 2.13257 13.901615 6.950296 0 1.159406 0 2.316765 0 3.475148 23.61586 12.297071 42.419112 29.40982 66.034972 41.705867 1.157359 0 2.318812 0 3.475148 0 0 1.159406 0 2.316765 0 3.475148 23.61586 12.297071 42.419112 29.40982 66.034972 41.705867 11.406794 1.335415 15.32401 10.163477 24.328082 13.901615 0 1.159406 0 2.316765 0 3.475148 23.61586 12.297071 42.419112 29.40982 66.034972 41.705867 9.482979-2.532683 6.995321 6.907317 13.901615 6.950296 0 1.160429 0 2.314719 0 3.475148 21.864984 12.109806 57.546647 27.672246 41.706891 66.034972 0 1.161453 0 2.314719 0 3.475148-12.520151 11.80793-30.523177 18.135032-41.706891 31.279401-9.004071 3.740184-12.921287 12.564154-24.328082 13.901615-22.896476 14.174837-46.6249 27.522844-66.034972 45.182039-6.906294 0.044002-4.418636 9.482979-13.901615 6.951319-22.896476 14.173814-46.6249 27.522844-66.034972 45.181015-6.906294 0.044002-4.418636 9.484002-13.901615 6.951319-19.403932 11.875468-39.694047 22.865777-55.608505 38.23072-2.131547 4.818749-13.379729 0.522909-13.901615 6.950296-7.263427 1.472538-9.204639-2.382257-13.901615-3.475148-3.413749-4.696975-9.273201-6.944156-13.901615-10.425444-1.092891-4.701069-4.948709-6.639211-3.475148-13.902638 0-125.118626 0-250.237251 0-375.355877-0.260943-6.053879 0.773619-10.809183 3.475148-13.901615C443.568956 279.533484 449.427384 277.285281 452.842157 272.587282zM650.947074 425.511183c-23.860431-37.539988-60.595077-62.206784-114.692159-69.51012C559.564807 394.08852 597.184613 417.872203 650.947074 425.511183z" p-id="7369"></path></svg>