<?xml version="1.0" standalone="no"?><!DOCTYPE svg PUBLIC "-//W3C//DTD SVG 1.1//EN" "http://www.w3.org/Graphics/SVG/1.1/DTD/svg11.dtd"><svg t="1481246231035" class="icon" style="" viewBox="0 0 1024 1024" version="1.1" xmlns="http://www.w3.org/2000/svg" p-id="3542" xmlns:xlink="http://www.w3.org/1999/xlink" width="200" height="200"><defs><style type="text/css"></style></defs><path d="M150.528342 323.605236l-50.641377 78.17036 93.844342 58.372455c0 0 62.442144 32.042787 32.787754 91.905176C198.36586 608.840582 61.863976 733.042325 61.863976 733.042325l122.509195 76.392878c84.502579-183.616948 79.154781-159.089321 100.494809-225.145783 21.808702-67.402109 26.437116-118.77515-10.541077-155.86079C226.602971 380.561435 221.440391 376.155079 150.528342 323.605236z" p-id="3543"></path><path d="M465.388403 224.556359c19.35993-33.664727 28.718065-55.587016 28.718065-55.587016l-112.99961-31.707143c0 0-45.586245 148.681274-126.859269 218.052225 0 0 78.608336 45.370327 77.701686 44.036959 22.630417-22.522969 42.75885-45.429679 60.473303-67.677379 17.96107-7.851828 35.399231-15.271822 52.351322-22.199605-20.829398 37.626969-54.680367 93.982488-88.453564 129.519866l47.604204 41.648562c0 0 32.41527-31.119765 67.868737-68.75799l40.423665 0 0 69.357648-157.660786 0 0 55.491849 157.660786 0 0 133.049249c-1.986237-0.097214-3.974521-0.097214-5.931083-0.215918-17.426905-0.901533-44.517913-3.794419-55.101969-20.446681-12.899798-20.35049-3.462868-57.784054-2.808976-80.643692L339.788823 568.477292l-4.010337 1.982144c0 0-39.649022 178.419576 115.004267 174.421518 144.821363 3.925403 227.823775-40.256866 267.630387-70.906933l15.84692 59.044768 89.323375-37.038568-60.322877-148.092873-72.610738 22.572088 13.614066 50.771337c-18.711154 13.831007-40.232306 24.252357-63.180971 31.900547L641.082914 536.733311l153.741523 0 0-55.491849-153.741523 0L641.082914 411.883815l154.366763 0 0-55.503105L521.138124 356.38071c19.736507-23.988344 35.290761-46.031383 39.397289-60.114123l-47.693232-12.929474c204.975395-73.392544 319.260278-60.774155 318.167387 59.487859l0 317.182966c0 0 12.270465 109.061928-112.633267 101.102652l-67.382667-14.491039-15.854083 64.050782c0 0 291.38337 83.249029 315.196729-140.792607 23.801079-224.00582-5.943362-366.732475-5.943362-366.732475S918.064272 96.381118 465.388403 224.556359z" p-id="3544"></path><path d="M217.508849 294.39496c44.517913 0 80.637552-35.82595 80.637552-80.019475 0-44.169989-36.119639-80.031754-80.637552-80.031754s-80.619132 35.861766-80.619132 80.031754C136.889717 258.56901 172.990936 294.39496 217.508849 294.39496z" p-id="3545"></path></svg>