<?xml version="1.0" standalone="no"?><!DOCTYPE svg PUBLIC "-//W3C//DTD SVG 1.1//EN" "http://www.w3.org/Graphics/SVG/1.1/DTD/svg11.dtd"><svg t="1481246411657" class="icon" style="" viewBox="0 0 1024 1024" version="1.1" xmlns="http://www.w3.org/2000/svg" p-id="5728" xmlns:xlink="http://www.w3.org/1999/xlink" width="200" height="200"><defs><style type="text/css"></style></defs><path d="M544.001343 481.008148 375.265314 352.557638c-22.390963-17.045211-40.711214-7.967462-40.711214 20.173458l0 278.536784c0 28.14092 18.320251 37.21867 40.711214 20.173458l168.736029-128.450511C566.392306 525.945617 566.392306 498.05336 544.001343 481.008148z" p-id="5729"></path><path d="M923.875117 426.415786C749.235634 258.920004 523.180132 157.182902 385.708154 106.321514c-66.031902-24.430412-138.285506 16.97358-150.536528 86.305645-0.6191 3.5038-1.219781 6.999414-1.814322 10.491958 126.97081 39.376823 331.947228 116.853381 490.75514 243.409752 44.435025 35.410488 43.281759 94.740758-3.216251 128.273479-89.89131 64.825424-255.909437 168.231539-488.309438 245.960855 0.524956 3.213181 1.049912 6.39464 1.576915 9.510608 11.998265 71.019497 86.551238 113.130593 153.404856 86.327134 253.701143-101.717659 434.862155-237.492996 532.814048-322.505181C970.886827 550.262442 972.13833 472.705042 923.875117 426.415786z" p-id="5730"></path><path d="M233.357304 203.119117c-1.579985-0.490164-3.158946-0.979304-4.714372-1.457188-60.793598-18.688641-127.314641 12.984732-138.593522 66.022693C46.948777 470.365764 67.592956 649.600915 89.120248 755.475244c11.04659 54.329373 79.684854 86.543052 141.233652 66.039066 0.747014-0.248663 1.485841-0.50142 2.231831-0.751107C210.11495 683.176614 189.970144 457.805704 233.357304 203.119117z" p-id="5731"></path></svg>