<?xml version="1.0" standalone="no"?><!DOCTYPE svg PUBLIC "-//W3C//DTD SVG 1.1//EN" "http://www.w3.org/Graphics/SVG/1.1/DTD/svg11.dtd"><svg t="1481246711492" class="icon" style="" viewBox="0 0 1025 1024" version="1.1" xmlns="http://www.w3.org/2000/svg" p-id="9609" xmlns:xlink="http://www.w3.org/1999/xlink" width="200.1953125" height="200"><defs><style type="text/css"></style></defs><path d="M119.080694 334.06464c15.587328-35.428352 30.066688-68.212736 44.55424-101.006336 7.79776-17.332224 18.187264-22.994944 34.52928-18.8416 24.876032 6.408192 33.047552 24.113152 21.531648 49.371136-24.50432 56.5248-49.753088 112.685056-74.630144 168.846336-11.506688 25.621504-22.27712 51.253248-34.52928 76.500992-10.397696 20.731904-26.368 25.249792-45.299712 13.942784-14.106624-8.28928-18.19648-24.122368-10.397696-43.33568 8.170496-19.605504 16.342016-39.573504 25.99424-58.415104 5.562368-10.934272 4.453376-19.223552-1.854464-29.775872-24.1408-40.327168-46.790656-81.037312-70.549504-121.356288-3.71712-6.035456-6.689792-12.81536-7.798784-19.605504-2.598912-13.188096 2.963456-25.249792 14.106624-32.411648 12.25216-7.534592 24.876032-6.780928 35.647488 2.26304 5.571584 4.52608 9.280512 10.55232 12.996608 16.57856C81.57055 268.860416 99.76703 300.14464 119.080694 334.06464L119.080694 334.06464zM693.85087 355.170304c0 22.612992 0.372736 41.836544 0 61.432832-0.362496 19.214336-8.906752 28.266496-26.730496 29.021184-21.169152 0.754688-32.303104-7.161856-32.303104-27.139072-0.745472-55.02464-0.745472-110.050304 0-165.074944 0.372736-21.10464 11.506688-30.529536 30.44864-29.775872 17.449984 0.753664 27.84768 10.934272 28.22144 28.266496 0.362496 19.605504 0 39.200768 0 59.169792 6.30784-0.372736 8.162304-4.516864 10.761216-7.534592 21.9136-22.612992 43.817984-45.981696 66.096128-68.594688 19.304448-19.596288 47.8976-12.433408 53.470208 12.81536 3.336192 14.697472-3.71712 26.385408-13.74208 36.18304-12.25216 12.433408-25.249792 24.122368-37.873664 36.555776-12.997632 12.433408-12.997632 12.433408 0.371712 25.248768 14.1056 13.197312 27.848704 26.385408 41.955328 39.573504 3.345408 3.017728 6.689792 6.408192 8.915968 10.179584 8.907776 14.314496 7.798784 32.784384-2.598912 41.454592-11.143168 9.42592-30.075904 8.671232-42.328064-2.26304-24.876032-22.985728-49.388544-45.980672-73.892864-69.349376C702.395126 362.33216 699.422454 359.687168 693.85087 355.170304L693.85087 355.170304zM489.63967 309.57056c0 17.332224 0 34.292736 0 51.625984 0.371712 24.876032 15.960064 40.70912 39.355392 41.081856 22.649856 0 39.728128-16.577536 40.100864-40.700928 0.371712-35.801088 0-71.230464 0.371712-107.040768 0.372736-19.596288 10.025984-30.902272 26.368-31.65696 15.214592-0.754688 25.239552 7.161856 28.212224 22.240256 1.118208 5.271552 1.854464 10.925056 1.854464 16.205824 0 32.411648 0.372736 64.822272 0 96.861184-0.736256 49.743872-23.386112 77.62944-71.658496 85.927936-20.795392 3.762176-41.955328 3.017728-62.749696-3.017728-37.128192-10.55232-57.179136-35.802112-58.297344-76.12928-1.108992-36.555776-0.745472-73.111552 0-109.676544 0.372736-18.468864 7.798784-29.39392 20.050944-32.411648 20.422656-4.898816 34.900992 6.407168 36.0192 29.775872C490.011382 271.878144 489.266934 290.719744 489.63967 309.57056 489.266934 309.57056 489.63967 309.57056 489.63967 309.57056L489.63967 309.57056zM832.349942 311.069696c0-20.349952-0.746496-40.318976 0-60.678144 0.745472-19.223552 11.505664-28.639232 29.330432-27.884544 15.96928 0.753664 25.248768 11.307008 25.621504 30.902272 0.371712 35.429376 0 70.475776 0.371712 105.905152 0 19.977216 8.916992 34.292736 24.50432 39.94624 27.475968 10.55232 54.21568-7.161856 54.95296-36.928512 0.745472-32.411648 0-64.823296 0.371712-97.243136 0-6.780928 0.372736-13.560832 1.490944-19.969024 2.598912-13.952 11.505664-21.485568 24.50432-22.240256 14.1056-0.754688 23.757824 6.035456 27.84768 19.605504 0.73728 2.26304 1.855488 4.898816 1.855488 7.15264 0 40.70912 2.226176 81.782784-0.746496 122.110976-3.335168 43.727872-25.985024 64.45056-71.657472 71.985152-22.278144 3.772416-44.555264 2.644992-66.458624-4.516864-31.565824-10.179584-50.871296-35.429376-52.36224-69.349376C831.603446 350.6432 832.349942 331.047936 832.349942 311.069696L832.349942 311.069696zM320.320246 214.217728c-58.65984-0.754688-106.932224 51.634176-106.932224 115.702784 0 67.84 43.808768 115.321856 106.559488 115.321856 64.24064 0 106.568704-45.599744 106.94144-114.567168C426.88895 266.979328 379.363062 214.590464 320.320246 214.217728L320.320246 214.217728zM351.141622 380.046336c-18.19648 19.968-45.299712 19.596288-63.123456-0.381952-23.022592-25.249792-23.022592-70.4768 0-95.725568 18.19648-19.977216 44.926976-20.350976 63.123456-0.381952 12.624896 13.570048 17.451008 30.157824 17.451008 48.244736S363.765494 366.476288 351.141622 380.046336L351.141622 380.046336zM487.49439 726.628352c-1.481728 12.816384-2.599936 24.877056-3.708928 36.937728-1.118208 12.806144-8.543232 16.577536-20.422656 16.577536-11.515904-0.380928-14.11584-7.533568-14.11584-16.960512 0.372736-35.801088 0.745472-71.612416 0.745472-107.413504 0-8.670208 3.71712-9.796608 10.770432-9.796608 12.25216 0.371712 24.877056-0.372736 37.129216 0.371712 10.396672 0.754688 12.623872-3.7632 12.25216-13.188096-0.372736-9.043968-0.372736-15.070208-12.25216-14.697472-24.131584 0.754688-48.64512 0-72.77568 0.381952-9.280512 0.372736-12.25216-2.644992-11.879424-12.060672 0.745472-16.205824 0.36352-32.038912 0.36352-48.243712 0-4.527104 0.381952-8.672256-5.935104-9.797632-19.305472-3.772416-24.50432 0-24.50432 19.968 0 3.016704 0 6.035456 0 9.053184-0.372736 12.81536 3.708928 29.765632-2.599936 38.064128-6.689792 8.671232-24.13056 1.882112-36.764672 2.635776-1.108992 0-1.854464 0-2.963456 0-11.88864-1.881088-10.770432 6.035456-11.143168 13.942784-0.372736 8.298496 0 14.697472 11.515904 13.94176 10.389504-0.745472 20.7872 0 31.184896-0.371712 7.798784-0.372736 11.143168 1.881088 9.280512 10.17856-2.2272 10.171392-2.963456 21.10464-5.189632 31.275008-9.288704 37.311488-28.594176 68.594688-58.29632 97.234944 0-30.903296 0.745472-58.415104 0-85.927936-1.490944-40.328192 0.36352-79.89248 17.451008-117.965824 9.280512-20.349952 7.053312-21.10464-13.369344-29.011968-7.798784-3.016704-10.025984-1.509376-12.25216 6.02624-12.997632 42.963968-32.30208 82.537472-57.551872 119.093248-1.854464 3.017728-6.316032 6.035456-1.481728 10.179584 6.30784 5.653504 11.879424 13.94176 19.305472 15.833088 5.198848 1.50016 8.162304-9.806848 12.624896-14.705664 1.108992-1.509376 1.854464-3.7632 4.826112-1.882112 0 33.539072 0 67.459072 0 101.00736 0 21.103616 0 19.595264 20.422656 20.721664 15.214592 0.754688 7.053312-12.05248 11.879424-17.714176 5.198848 4.154368 10.397696 7.543808 14.478336 11.687936 5.198848 4.898816 8.544256 3.7632 13.370368-1.508352 33.411072-36.928512 55.324672-79.147008 62.377984-129.272832 1.108992-8.28928 0.745472-17.333248 5.571584-26.00448 5.571584 4.898816 3.708928 10.179584 3.708928 14.697472 0 31.65696 0 63.31392 0 95.352832 0 45.227008 5.198848 50.497536 49.380352 50.497536 32.674816 0 42.336256-8.662016 45.672448-41.827328C516.834038 734.162944 516.834038 734.162944 487.49439 726.628352L487.49439 726.628352zM785.277686 651.626496c-3.336192 0-7.053312 0-10.389504 0-23.768064-0.372736-19.687424 3.016704-21.168128-20.731904-0.746496-13.560832 3.344384-19.596288 17.078272-16.960512 3.71712 0.753664 7.79776-0.372736 11.887616 0.380928 11.133952 1.509376 8.907776-6.407168 8.907776-12.4416 0-6.398976 1.854464-13.560832-8.907776-12.807168-8.915968 0.372736-20.059136 3.7632-25.99424-1.890304-6.680576-6.408192-2.599936-18.086912-2.2272-27.512832 0.372736-14.314496-9.653248-9.41568-16.342016-10.170368-6.679552-0.753664-14.47936-2.264064-13.361152 9.797632 0.736256 7.533568 0.36352 15.0784 0 22.612992-0.371712 10.171392-8.170496 6.02624-13.370368 6.780928-6.688768 0.753664-7.053312-3.391488-5.94432-8.671232 0.745472-3.008512 1.118208-6.02624 1.490944-9.043968 2.598912-11.67872-6.317056-10.55232-12.624896-10.925056-5.94432-0.381952-13.370368-4.898816-14.47936 7.916544-1.48992 18.458624-5.57056 36.555776-8.915968 55.023616-2.599936 14.697472-0.745472 17.7152 14.47936 18.087936 12.996608 0.371712 10.02496-10.553344 10.770432-16.960512 2.2272-14.323712 12.624896-9.042944 20.422656-9.797632 10.02496-1.1264 7.426048 6.790144 7.798784 12.434432 0.736256 24.877056 0.371712 24.877056-24.1408 24.877056-5.935104 0-11.879424 0.381952-17.813504 0-11.143168-1.127424-10.0352 6.02624-10.397696 13.570048 0 7.534592-0.745472 13.570048 10.397696 13.188096 17.813504-0.754688 35.638272-0.372736 53.460992-0.372736l0 0c17.823744 0 35.647488 0 53.471232 0 3.335168 0 7.79776 2.26304 9.652224-3.772416C803.846902 659.914752 799.019766 651.626496 785.277686 651.626496L785.277686 651.626496zM450.366198 581.904384c8.170496 7.161856 15.970304 14.697472 24.50432 21.859328 3.345408 2.635776 5.94432 10.171392 11.515904 5.653504 6.30784-5.280768 11.133952-12.061696 16.704512-18.468864-1.48992-2.26304-1.854464-3.772416-2.971648-4.527104-13.732864-11.305984-27.84768-22.232064-41.954304-33.156096-2.599936-2.264064-4.08064-0.763904-6.317056 0.745472C438.85951 563.808256 438.486774 571.352064 450.366198 581.904384L450.366198 581.904384zM654.95935 555.14624c-36.764672 0.372736-73.521152 0-110.276608-0.380928-6.689792 0-9.662464 1.890304-10.0352 9.423872-0.736256 12.061696 0.746496 20.732928 15.970304 18.087936 3.71712-0.754688 7.79776 0.381952 11.879424 0 9.653248-1.127424 12.25216 3.398656 12.25216 13.197312 0.372736 12.05248-2.2272 18.086912-15.214592 15.823872-3.345408-0.753664-7.061504 0.381952-10.397696 0-11.143168-1.509376-15.59552 1.509376-15.223808 14.323712 1.108992 25.248768 0.36352 50.49856 0.36352 75.374592l0.371712 0c0 25.249792 0 50.507776 0 75.374592 0.372736 21.859328 5.945344 28.266496 27.113472 29.022208 24.877056 0.753664 49.753088 0.753664 74.257408 0.371712 21.531648-0.745472 26.730496-6.779904 26.730496-28.639232 0-45.980672 0-91.58144 0.371712-137.562112 0-27.13088 0.372736-27.13088-25.985024-28.266496-3.71712 0-8.544256 2.635776-10.397696-4.898816-3.71712-17.714176 0.36352-23.36768 17.451008-23.36768 3.336192 0 7.053312-0.371712 10.397696 0 10.761216 1.127424 9.280512-6.779904 8.906752-12.81536C663.493366 563.808256 667.57503 555.14624 654.95935 555.14624L654.95935 555.14624zM597.034742 595.09248c-0.371712-4.144128-3.344384-12.433408 3.708928-12.060672 8.906752 0.381952 2.971648 9.42592 5.198848 14.323712-2.2272 4.517888 2.971648 13.570048-5.198848 12.434432C593.317622 609.035264 597.398262 600.373248 597.034742 595.09248L597.034742 595.09248zM568.068854 637.682688c6.679552 0 6.679552 3.7632 6.317056 8.662016-1.490944 16.21504-1.490944 32.792576-12.997632 46.362624 0-15.451136 0-30.902272 0-46.73536C561.387254 641.445888 561.387254 637.682688 568.068854 637.682688L568.068854 637.682688zM637.135606 760.921088c-1.118208 10.55232 0 20.349952-15.233024 19.596288-15.960064-0.753664-31.556608-0.372736-47.516672-0.372736-14.852096 0-11.88864-10.925056-12.997632-20.349952-1.48992-11.687936 5.935104-10.179584 12.997632-10.179584 8.534016 0 16.704512 0 25.248768 0 7.426048 0 14.851072 0 22.267904 0C628.96511 750.368768 638.244598 746.605568 637.135606 760.921088L637.135606 760.921088zM632.300278 638.056448c5.198848 0.381952 4.835328 4.145152 4.835328 7.543808 0 5.653504 0 10.925056 0 16.577536 0 4.527104 0.36352 9.043968 0 13.570048-0.372736 3.390464 2.2272 9.41568-2.971648 10.171392-5.94432 1.135616-6.689792-4.517888-7.061504-9.41568-0.36352-10.553344 0-21.10464 0-31.657984C627.10143 641.445888 626.73791 637.682688 632.300278 638.056448L632.300278 638.056448zM628.219638 707.032064c7.053312 1.127424 8.915968 3.391488 8.915968 10.171392-0.372736 7.916544-5.198848 7.161856-10.034176 7.161856-15.961088 0-31.930368-0.371712-47.516672-0.371712-18.569216 0-18.569216 0-16.714752-20.360192 21.168128 8.298496 21.912576 7.916544 28.22144-15.823872 3.707904-14.323712 5.198848-28.648448 6.30784-43.344896 0-2.635776-1.108992-6.780928 3.345408-6.780928 5.198848-0.380928 4.826112 3.7632 4.826112 7.161856 0 10.925056-0.372736 22.232064 0 33.166336C605.569782 695.72608 612.249334 704.388096 628.219638 707.032064L628.219638 707.032064zM783.050486 693.081088c-15.214592 0.381952-30.81216 0-46.035968 0l0 0c-15.96928 0-31.565824 0.381952-47.525888 0-7.053312-0.372736-9.288704 2.26304-9.288704 9.424896 0.371712 26.758144 0 53.142528 0 79.901696 0 13.569024 6.317056 21.859328 20.04992 22.985728 23.022592 1.881088 46.41792 2.26304 69.813248 0.371712 17.078272-1.499136 22.27712-7.534592 22.639616-25.248768 0.372736-25.621504 0-51.253248 0.372736-76.883968C793.820918 694.971392 790.84927 692.708352 783.050486 693.081088L783.050486 693.081088zM763.746038 738.308096c-0.372736 3.016704 0 6.035456 0 9.042944 0.372736 37.311488 1.48992 32.792576-31.556608 33.166336-22.286336 0-22.286336 0-22.286336-23.740416 0-37.311488 0-36.555776 34.910208-37.69344C760.40063 717.95712 766.717686 722.484224 763.746038 738.308096L763.746038 738.308096z" p-id="9610"></path></svg>