<?xml version="1.0" standalone="no"?><!DOCTYPE svg PUBLIC "-//W3C//DTD SVG 1.1//EN" "http://www.w3.org/Graphics/SVG/1.1/DTD/svg11.dtd"><svg t="1481344345623" class="icon" style="" viewBox="0 0 1024 1024" version="1.1" xmlns="http://www.w3.org/2000/svg" p-id="1267" xmlns:xlink="http://www.w3.org/1999/xlink" width="200" height="200"><defs><style type="text/css"></style></defs><path d="M200.760396 926.229233c-4.532223 0-8.063653-0.946558-10.79895-2.892887-3.62762-2.592035-5.996574-5.661953-7.227612-9.372461-1.353834-4.082992-1.443885-8.997931-0.26606-14.605649 1.276063-6.076392 3.771907-11.528568 7.629771-16.668635l210.06532-286.073434-2.90619-6.230911c-6.353708-13.624299-16.355503-26.200732-29.726022-37.381375-14.230096-11.865235-32.212656-17.875113-53.459562-17.875113-21.681812 0-39.322587 6.646374-52.430116 19.754926-13.098319 13.098319-19.739577 30.738072-19.739577 52.430116 0 9.41851-3.257184 13.374612-5.705955 15.531741-4.443196 3.9121-9.021467 5.942339-13.998829 6.203282-0.367367 0.020466-0.712221 0.029676-1.052982 0.029676-4.254907 0-8.201799-1.535983-12.062733-4.696975-3.568269-2.912329-5.371334-8.650007-5.371334-17.067724 0-13.470803 3.047406-26.39516 9.05626-38.413891 6.194072-12.387122 14.722306-23.64349 25.347295-33.455973 10.720156-9.899464 22.881127-17.889439 36.149315-23.74889 12.981662-5.718235 26.474978-8.620331 40.098253-8.620331 46.104037 0 78.498842 16.409738 99.03762 50.166563l9.058306 14.888082 315.345108-434.137655L205.04191 133.991714c-9.530051 0-16.264429-2.02717-20.014846-6.025227-4.861728-5.182023-5.066389-8.967232-4.798283-11.362792 0.509606-4.623297 2.789533-8.892531 6.971785-13.074783 3.824095-3.824095 9.660011-5.683443 17.842367-5.683443l559.929616 0 0.260943-0.011256c0.920976-0.041956 1.834788-0.062422 2.713808-0.062422 15.492856 0 20.906146 6.367011 23.630187 11.156084 5.601578 9.870812 3.394307 14.824637 0.496304 18.367323l-0.204661 0.25071L435.754478 616.084567l0 3.780093c0 14.553461 3.387144 26.619264 10.064216 35.862789 5.552459 7.701402 11.878538 15.112186 18.799158 22.014386l9.589402 9.56689 336.363817-461.330994 0.13303-0.199545c3.574409-5.354961 7.087419-6.207375 9.748015-6.351662 0.408299-0.021489 0.838088-0.032746 1.264806-0.032746 4.591575 0 8.756431 1.329275 12.730952 4.065596 4.316306 2.969635 7.212262 6.927783 8.852622 12.098549 0.808412 2.565429 1.356904 6.766101-3.2623 13.379729L593.477686 593.298608l0-7.14677-69.15094 88.24174 14.59644 17.393135c13.275351-7.084349 25.551956-16.898879 36.488029-29.170366 11.988032-13.453407 18.066471-27.868721 18.066471-42.847877l0-12.541641 12.604062 0c10.825556 0 14.951527 4.109598 17.114796 7.201006 4.490268 6.435573 7.072069 12.399401 7.665587 17.711384 1.345648 11.603269-0.838088 22.748097-6.674003 34.121122-6.116301 11.917424-14.931061 22.769586-26.199709 32.251541-11.395538 9.575076-25.076118 17.265222-40.654932 22.850427-15.623839 5.596462-31.833009 8.433066-48.177256 8.433066l-18.068518 0L377.479237 887.837854l375.745756 0L753.224993 718.725248c0-5.490038 2.194992-7.840572 4.340865-9.41544 4.048199-2.976798 8.336876-4.419659 13.123902-4.419659 4.910846 0 9.495258 1.512447 14.016225 4.623297 3.312442 2.279926 4.66423 4.948709 4.66423 9.212826l0 181.588755c0 5.504364-2.323928 11.533684-6.907317 17.925255-3.719718 5.16258-11.354606 7.79043-22.677489 7.79043L204.52207 926.030711l-0.518816 0.047072C202.882734 926.178067 201.791889 926.229233 200.760396 926.229233zM405.780817 659.534148c-3.288906 0-6.427386 1.328251-8.838296 3.738138l-0.613984 0.613984L230.910067 887.837854l100.360755 0 125.147278-175.36603-9.30697-6.762007c-8.000208-5.813403-13.954827-11.177574-17.698081-15.943111-3.944845-5.024433-6.780427-9.248641-8.42795-12.55699-2.26867-4.53734-2.622734-6.111185-2.636037-6.175653C416.090627 660.084687 407.483598 659.534148 405.780817 659.534148zM313.25654 619.037828c-5.820566 0-10.151197-1.609661-13.627369-5.066389-3.447519-3.428076-5.053086-7.722892-5.053086-13.517875 0-5.783727 1.604544-10.073426 5.053086-13.501502 3.487428-3.467985 7.818059-5.083785 13.627369-5.083785s10.139941 1.6158 13.627369 5.082762c3.458775 3.438309 5.068436 7.729032 5.068436 13.501502 0 5.783727-1.609661 10.079566-5.068436 13.517875C323.407738 617.428168 319.078129 619.037828 313.25654 619.037828z" p-id="1268" fill="#ffffff"></path></svg>